#N canvas 52 52 1920 997 12;
#X obj 487 33 inlet;
#X obj 491 240 mtof;
#X obj 496 346 osc~;
#X obj 541 405 +~;
#X obj 677 277 osc~;
#X obj 684 334 *~;
#X obj 703 540 cos~;
#X obj 665 178 r freqmod;
#X obj 768 210 r index;
#X obj 1045 563 pack 1 500;
#X obj 1295 512 delay 500;
#X obj 1197 661 pack 0 500;
#X obj 1028 743 vline~;
#X obj 941 828 *~;
#X obj 716 689 vcf~ 1;
#X obj 955 277 pack 1 500;
#X obj 1053 184 delay 500;
#X obj 1086 277 pack 0 500;
#X obj 987 388 vline~;
#X obj 888 475 *~ 1000;
#X obj 777 410 * 1;
#X obj 834 322 r filterfreq;
#X obj 879 646 r Q;
#X obj 521 290 t f f f;
#X obj 658 239 * 1;
#X obj 1399 183 r attack;
#X obj 1565 184 r release;
#X obj 1353 249 t f f f f;
#X obj 1572 265 t f f;
#X obj 483 87 t f b b b b;
#X obj 941 907 outlet~;
#X connect 0 0 29 0;
#X connect 1 0 23 0;
#X connect 2 0 3 0;
#X connect 3 0 6 0;
#X connect 4 0 5 0;
#X connect 5 0 3 1;
#X connect 6 0 14 0;
#X connect 7 0 24 1;
#X connect 8 0 5 1;
#X connect 9 0 12 0;
#X connect 10 0 11 0;
#X connect 11 0 12 0;
#X connect 12 0 13 1;
#X connect 13 0 30 0;
#X connect 14 0 13 0;
#X connect 15 0 18 0;
#X connect 16 0 17 0;
#X connect 17 0 18 0;
#X connect 18 0 19 0;
#X connect 19 0 14 1;
#X connect 20 0 19 1;
#X connect 21 0 20 1;
#X connect 22 0 14 2;
#X connect 23 0 2 0;
#X connect 23 1 24 0;
#X connect 23 2 20 0;
#X connect 24 0 4 0;
#X connect 25 0 27 0;
#X connect 26 0 28 0;
#X connect 27 0 15 1;
#X connect 27 1 16 1;
#X connect 27 2 9 1;
#X connect 27 3 10 1;
#X connect 28 0 17 1;
#X connect 28 1 11 1;
#X connect 29 0 1 0;
#X connect 29 1 15 0;
#X connect 29 2 16 0;
#X connect 29 3 9 0;
#X connect 29 4 10 0;
