#N canvas 935 446 958 536 12;
#X obj 641 235 clone phasemod 64;
#X msg 641 157 next \$1;
#X obj 28 212 vsl 25 200 20 4000 1 0 attack empty Attack 0 20 0 20 #ffc7c6 #000000 #000000 0 1;
#X floatatom 28 425 5 0 0 0 - - - 0;
#X obj 129 211 vsl 25 200 20 4000 1 0 release empty Release 0 20 0 20 #ffe3c6 #000000 #000000 0 1;
#X floatatom 129 425 5 0 0 0 - - - 0;
#X obj 224 210 vsl 25 200 0.1 2 1 0 freqmod empty FreqMod 0 20 0 20 #c6ffc7 #000000 #000000 0 1;
#X floatatom 224 425 5 0 0 0 - - - 0;
#X obj 317 211 vsl 25 200 0.1 2 1 0 index empty Index 0 20 0 20 #c6feff #000000 #000000 0 1;
#X floatatom 317 425 5 0 0 0 - - - 0;
#X obj 401 212 vsl 25 200 1 10 1 0 filter\ freq empty FilterFreq 0 20 0 20 #c7c6ff #000000 #000000 0 1;
#X floatatom 401 426 5 0 0 0 - - - 0;
#X obj 532 210 vsl 25 200 1 10 1 0 Q empty Q 0 20 0 20 #e3c6ff #000000 #000000 0 1;
#X floatatom 532 428 5 0 0 0 - - - 0;
#X obj 642 341 *~ 0.1;
#X obj 644 427 dac~;
#N canvas 128 68 1397 988 pno 0;
#X obj 90 216 r c;
#X msg 79 349 \; cx1 color \$1;
#X msg 101 320 2;
#X msg 147 319 10;
#X obj 141 277 del 100;
#X obj 195 142 del 100;
#X msg 133 214 \; cisx1 color \$1;
#X obj 144 81 r cis;
#X msg 201 184 12;
#X msg 155 185 10;
#X msg 272 326 2;
#X msg 318 325 10;
#X obj 312 283 del 100;
#X obj 360 144 del 100;
#X msg 366 186 12;
#X msg 320 187 10;
#X msg 51 291 1;
#X msg 105 156 2;
#X msg 222 297 3;
#X msg 270 158 4;
#X obj 261 222 r d;
#X msg 250 355 \; dx1 color \$1;
#X obj 309 83 r dis;
#X msg 298 216 \; disx1 color \$1;
#X msg 441 327 2;
#X msg 487 326 10;
#X obj 481 284 del 100;
#X obj 430 223 r e;
#X msg 419 356 \; ex1 color \$1;
#X msg 599 317 2;
#X msg 645 316 10;
#X obj 639 274 del 100;
#X obj 689 128 del 100;
#X msg 695 170 12;
#X msg 649 171 10;
#X msg 770 318 2;
#X msg 816 317 10;
#X obj 810 275 del 100;
#X obj 863 127 del 100;
#X msg 869 169 12;
#X msg 823 170 10;
#X msg 952 322 2;
#X msg 998 321 10;
#X obj 992 279 del 100;
#X obj 588 213 r f;
#X msg 577 346 \; fx1 color \$1;
#X obj 638 67 r fis;
#X msg 627 200 \; fisx1 color \$1;
#X msg 748 347 \; gx1 color \$1;
#X obj 759 214 r g;
#X obj 812 66 r gis;
#X msg 801 199 \; gisx1 color \$1;
#X msg 930 351 \; ax1 color \$1;
#X obj 941 218 r a;
#X obj 1044 123 del 100;
#X msg 1050 165 12;
#X msg 1004 166 10;
#X msg 1133 318 2;
#X msg 1179 317 10;
#X obj 1173 275 del 100;
#X obj 993 62 r ais;
#X msg 982 195 \; aisx1 color \$1;
#X msg 1111 348 \; hx1 color \$1;
#X obj 1122 214 r h;
#X msg 391 298 5;
#X msg 549 289 6;
#X msg 599 142 7;
#X msg 720 289 8;
#X msg 773 141 9;
#X msg 902 293 10;
#X msg 954 137 11;
#X msg 1083 289 12;
#X floatatom 788 588 5 0 0 0 - - - 0;
#X obj 672 544 bng 15 250 50 0 cis empty empty 0 -6 0 8 #fcfcfc #000000 #000000;
#X obj 672 559 bng 15 250 50 0 cis empty empty 0 -6 0 8 #fcfcfc #000000 #000000;
#X obj 689 544 bng 15 250 50 0 dis empty empty 0 -6 0 8 #fcfcfc #000000 #000000;
#X obj 689 559 bng 15 250 50 0 dis empty empty 0 -6 0 8 #fcfcfc #000000 #000000;
#X obj 664 575 bng 15 250 50 0 c empty empty 0 -6 0 8 #fcfcfc #000000 #000000;
#X obj 664 590 bng 15 250 50 0 c empty empty 0 -6 0 8 #fcfcfc #000000 #000000;
#X obj 681 575 bng 15 250 50 0 d empty empty 0 -6 0 8 #fcfcfc #000000 #000000;
#X obj 681 590 bng 15 250 50 0 d empty empty 0 -6 0 8 #fcfcfc #000000 #000000;
#X obj 698 575 bng 15 250 50 0 e empty empty 0 -6 0 8 #fcfcfc #000000 #000000;
#X obj 698 590 bng 15 250 50 0 e empty empty 0 -6 0 8 #fcfcfc #000000 #000000;
#X obj 715 575 bng 15 250 50 0 f empty empty 0 -6 0 8 #fcfcfc #000000 #000000;
#X obj 715 590 bng 15 250 50 0 f empty empty 0 -6 0 8 #fcfcfc #000000 #000000;
#X obj 723 544 bng 15 250 50 0 fis empty empty 0 -6 0 8 #fcfcfc #000000 #000000;
#X obj 723 559 bng 15 250 50 0 fis empty empty 0 -6 0 8 #fcfcfc #000000 #000000;
#X obj 740 544 bng 15 250 50 0 gis empty empty 0 -6 0 8 #fcfcfc #000000 #000000;
#X obj 740 559 bng 15 250 50 0 gis empty empty 0 -6 0 8 #fcfcfc #000000 #000000;
#X obj 732 575 bng 15 250 50 0 g empty empty 0 -6 0 8 #fcfcfc #000000 #000000;
#X obj 732 590 bng 15 250 50 0 g empty empty 0 -6 0 8 #fcfcfc #000000 #000000;
#X obj 757 544 bng 15 250 50 0 ais empty empty 0 -6 0 8 #fcfcfc #000000 #000000;
#X obj 757 559 bng 15 250 50 0 ais empty empty 0 -6 0 8 #fcfcfc #000000 #000000;
#X obj 749 575 bng 15 250 50 0 a empty empty 0 -6 0 8 #fcfcfc #000000 #000000;
#X obj 749 590 bng 15 250 50 0 a empty empty 0 -6 0 8 #fcfcfc #000000 #000000;
#X obj 766 575 bng 15 250 50 0 h empty empty 0 -6 0 8 #fcfcfc #000000 #000000;
#X obj 766 590 bng 15 250 50 0 h empty empty 0 -6 0 8 #fcfcfc #000000 #000000;
#X obj 664 590 tgl 15 0 c1 empty empty 0 -6 0 8 #fcfcfc #000000 #000000 0 1;
#X obj 664 574 tgl 15 0 c2 empty empty 0 -6 0 8 #fcfcfc #000000 #000000 0 1;
#X obj 681 590 tgl 15 0 d1 empty empty 0 -6 0 8 #fcfcfc #000000 #000000 0 1;
#X obj 681 574 tgl 15 0 d2 empty empty 0 -6 0 8 #fcfcfc #000000 #000000 0 1;
#X obj 698 590 tgl 15 0 e1 empty empty 0 -6 0 8 #fcfcfc #000000 #000000 0 1;
#X obj 698 574 tgl 15 0 e2 empty empty 0 -6 0 8 #fcfcfc #000000 #000000 0 1;
#X obj 715 590 tgl 15 0 f1 empty empty 0 -6 0 8 #fcfcfc #000000 #000000 0 1;
#X obj 715 574 tgl 15 0 f2 empty empty 0 -6 0 8 #fcfcfc #000000 #000000 0 1;
#X obj 732 590 tgl 15 0 g1 empty empty 0 -6 0 8 #fcfcfc #000000 #000000 0 1;
#X obj 732 574 tgl 15 0 g2 empty empty 0 -6 0 8 #fcfcfc #000000 #000000 0 1;
#X obj 749 590 tgl 15 0 a1 empty empty 0 -6 0 8 #fcfcfc #000000 #000000 0 1;
#X obj 749 574 tgl 15 0 a2 empty empty 0 -6 0 8 #fcfcfc #000000 #000000 0 1;
#X obj 766 590 tgl 15 0 h1 empty empty 0 -6 0 8 #fcfcfc #000000 #000000 0 1;
#X obj 766 574 tgl 15 0 h2 empty empty 0 -6 0 8 #fcfcfc #000000 #000000 0 1;
#X obj 664 574 cnv 15 15 31 empty cx1 empty 20 12 0 14 #e0e0e0 #fcfcfc 0;
#X obj 681 574 cnv 15 15 31 empty dx1 empty 20 12 0 14 #e0e0e0 #fcfcfc 0;
#X obj 698 574 cnv 15 15 31 empty ex1 empty 20 12 0 14 #e0e0e0 #fcfcfc 0;
#X obj 715 574 cnv 15 15 31 empty fx1 empty 20 12 0 14 #e0e0e0 #fcfcfc 0;
#X obj 732 574 cnv 15 15 31 empty gx1 empty 20 12 0 14 #e0e0e0 #fcfcfc 0;
#X obj 749 574 cnv 15 15 31 empty ax1 empty 20 12 0 14 #e0e0e0 #fcfcfc 0;
#X obj 766 574 cnv 15 15 31 empty hx1 empty 20 12 0 14 #e0e0e0 #fcfcfc 0;
#X obj 723 559 tgl 15 0 fis1 empty empty 0 -6 0 8 #fcfcfc #000000 #000000 0 1;
#X obj 723 543 tgl 15 0 fis2 empty empty 0 -6 0 8 #fcfcfc #000000 #000000 0 1;
#X obj 740 559 tgl 15 0 gis1 empty empty 0 -6 0 8 #fcfcfc #000000 #000000 0 1;
#X obj 740 543 tgl 15 0 gis2 empty empty 0 -6 0 8 #fcfcfc #000000 #000000 0 1;
#X obj 757 559 tgl 15 0 ais1 empty empty 0 -6 0 8 #fcfcfc #000000 #000000 0 1;
#X obj 757 543 tgl 15 0 ais2 empty empty 0 -6 0 8 #fcfcfc #000000 #000000 0 1;
#X obj 672 544 cnv 15 15 30 empty cisx1 empty 20 12 0 14 #202020 #fcfcfc 0;
#X obj 689 544 cnv 15 15 30 empty disx1 empty 20 12 0 14 #202020 #fcfcfc 0;
#X obj 723 544 cnv 15 15 30 empty fisx1 empty 20 12 0 14 #202020 #fcfcfc 0;
#X obj 740 543 cnv 15 15 30 empty gisx1 empty 20 12 0 14 #202020 #fcfcfc 0;
#X obj 757 543 cnv 15 15 30 empty aisx1 empty 20 12 0 14 #202020 #fcfcfc 0;
#X obj 788 649 send midiP;
#X text 671 701 www.pd-tutorial.com;
#X text 684 679 Johannes Kreidler;
#X text 14 7 5.2.2.3. piano display;
#X obj 788 556 + 59;
#X floatatom 790 525 5 0 0 0 - - - 0;
#X obj 1187 585 f;
#X obj 1233 585 +;
#X floatatom 1122 503 5 0 0 0 - - - 0;
#X obj 1167 481 bng 15 250 50 0 empty empty empty 17 7 0 10 #fcfcfc #000000 #000000;
#X obj 1220 479 bng 15 250 50 0 empty empty empty 17 7 0 10 #fcfcfc #000000 #000000;
#X obj 1167 502 t b b;
#X msg 1121 568 set \$1;
#X obj 1219 503 t b b;
#X msg 1212 550 12;
#X msg 1251 549 -12;
#X obj 1173 413 r octaveUp;
#X msg 1091 447 59;
#X obj 1087 412 r middleC;
#X obj 1275 414 r octaveDown;
#X connect 0 0 2 0;
#X connect 0 0 4 0;
#X connect 0 0 16 0;
#X connect 2 0 1 0;
#X connect 3 0 1 0;
#X connect 4 0 3 0;
#X connect 5 0 8 0;
#X connect 7 0 9 0;
#X connect 7 0 5 0;
#X connect 7 0 17 0;
#X connect 8 0 6 0;
#X connect 9 0 6 0;
#X connect 10 0 21 0;
#X connect 11 0 21 0;
#X connect 12 0 11 0;
#X connect 13 0 14 0;
#X connect 14 0 23 0;
#X connect 15 0 23 0;
#X connect 16 0 133 0;
#X connect 17 0 133 0;
#X connect 18 0 133 0;
#X connect 19 0 133 0;
#X connect 20 0 10 0;
#X connect 20 0 12 0;
#X connect 20 0 18 0;
#X connect 22 0 15 0;
#X connect 22 0 13 0;
#X connect 22 0 19 0;
#X connect 24 0 28 0;
#X connect 25 0 28 0;
#X connect 26 0 25 0;
#X connect 27 0 24 0;
#X connect 27 0 26 0;
#X connect 27 0 64 0;
#X connect 29 0 45 0;
#X connect 30 0 45 0;
#X connect 31 0 30 0;
#X connect 32 0 33 0;
#X connect 33 0 47 0;
#X connect 34 0 47 0;
#X connect 35 0 48 0;
#X connect 36 0 48 0;
#X connect 37 0 36 0;
#X connect 38 0 39 0;
#X connect 39 0 51 0;
#X connect 40 0 51 0;
#X connect 41 0 52 0;
#X connect 42 0 52 0;
#X connect 43 0 42 0;
#X connect 44 0 29 0;
#X connect 44 0 31 0;
#X connect 44 0 65 0;
#X connect 46 0 34 0;
#X connect 46 0 32 0;
#X connect 46 0 66 0;
#X connect 49 0 35 0;
#X connect 49 0 37 0;
#X connect 49 0 67 0;
#X connect 50 0 40 0;
#X connect 50 0 38 0;
#X connect 50 0 68 0;
#X connect 53 0 41 0;
#X connect 53 0 43 0;
#X connect 53 0 69 0;
#X connect 54 0 55 0;
#X connect 55 0 61 0;
#X connect 56 0 61 0;
#X connect 57 0 62 0;
#X connect 58 0 62 0;
#X connect 59 0 58 0;
#X connect 60 0 56 0;
#X connect 60 0 54 0;
#X connect 60 0 70 0;
#X connect 63 0 57 0;
#X connect 63 0 59 0;
#X connect 63 0 71 0;
#X connect 64 0 133 0;
#X connect 65 0 133 0;
#X connect 66 0 133 0;
#X connect 67 0 133 0;
#X connect 68 0 133 0;
#X connect 69 0 133 0;
#X connect 70 0 133 0;
#X connect 71 0 133 0;
#X connect 72 0 129 0;
#X connect 133 0 72 0;
#X connect 134 0 141 0;
#X connect 134 0 133 1;
#X connect 135 0 136 0;
#X connect 135 0 134 0;
#X connect 136 0 135 1;
#X connect 137 0 135 0;
#X connect 138 0 140 0;
#X connect 139 0 142 0;
#X connect 140 0 135 0;
#X connect 140 1 143 0;
#X connect 141 0 137 0;
#X connect 142 0 135 0;
#X connect 142 1 144 0;
#X connect 143 0 136 1;
#X connect 144 0 136 1;
#X connect 145 0 138 0;
#X connect 146 0 137 0;
#X connect 147 0 146 0;
#X connect 148 0 139 0;
#X coords 0 -1 1 1 180 90 1 655 520;
#X restore 67 71 pd pno;
#X obj 641 22 r midiP;
#X floatatom 641 108 5 0 0 0 - - - 0;
#N canvas 65 -17 1920 997 keyInput 0;
#X floatatom 405 85 5 0 0 0 - - - 0;
#X obj 399 239 s c;
#X obj 434 239 s cis;
#X obj 484 239 s dis;
#X obj 530 239 s d;
#X obj 563 239 s e;
#X obj 595 239 s f;
#X obj 628 240 s fis;
#X obj 678 240 s gis;
#X obj 725 239 s ais;
#X obj 812 238 s a;
#X obj 858 241 s h;
#X obj 778 241 s g;
#X obj 991 241 s middleC;
#X obj 1093 239 s octaveDown;
#X obj 405 140 select 97 119 101 115 100 102 116 121 117 103 104 106 122 120 99;
#X obj 897 241 s octaveUp;
#X obj 404 30 key;
#X obj 371 412 s colorBang;
#X obj 371 367 bng 19 250 50 0 empty empty empty 0 -10 0 12 #fcfcfc #000000 #000000;
#X obj 787 351 bng 19 250 50 0 empty empty empty 0 -10 0 12 #fcfcfc #000000 #000000;
#X obj 787 396 s shrinkGrow;
#X obj 168 164 keyup;
#X connect 0 0 15 0;
#X connect 15 0 1 0;
#X connect 15 1 2 0;
#X connect 15 2 3 0;
#X connect 15 3 4 0;
#X connect 15 4 5 0;
#X connect 15 5 6 0;
#X connect 15 6 7 0;
#X connect 15 7 8 0;
#X connect 15 8 9 0;
#X connect 15 9 12 0;
#X connect 15 10 10 0;
#X connect 15 11 11 0;
#X connect 15 12 16 0;
#X connect 15 13 13 0;
#X connect 15 13 20 0;
#X connect 15 14 14 0;
#X connect 17 0 0 0;
#X connect 19 0 18 0;
#X connect 20 0 21 0;
#X connect 22 0 19 0;
#X restore 265 123 pd keyInput;
#X text 16 21 Linked to Keyboard \, a-j white keys \, w-u blacks \, z = octave up x = middlec c = octave down, f 61;
#X obj 641 68 spigot;
#X obj 739 18 tgl 19 0 empty stopPiano empty 0 -10 0 12 #fcfcfc #000000 #000000 0 1;
#X obj 404 150 bng 30 250 50 0 stopPiano empty Toggle-Piano 0 -10 0 15 #00ff04 #000000 #000000;
#X floatatom 699 301 5 0 0 0 - pianoVol - 0;
#X obj 582 212 vsl 25 200 0.01 1 1 0 pianoVol empty Vol 0 20 0 20 #bccbfe #000000 #000000 0 1;
#X floatatom 582 428 5 0 0 0 - - - 0;
#X connect 0 0 14 0;
#X connect 1 0 0 0;
#X connect 2 0 3 0;
#X connect 4 0 5 0;
#X connect 6 0 7 0;
#X connect 8 0 9 0;
#X connect 10 0 11 0;
#X connect 12 0 13 0;
#X connect 14 0 15 0;
#X connect 14 0 15 1;
#X connect 17 0 21 0;
#X connect 18 0 1 0;
#X connect 21 0 18 0;
#X connect 22 0 21 1;
#X connect 24 0 14 1;
#X connect 25 0 26 0;
