#N canvas 360 -11 1920 997 12;
#N canvas 381 -15 1920 997 windSounds 0;
#X obj 153 415 dac~;
#N canvas 0 0 450 300 (subpatch) 0;
#X array soft 256 float 1;
#A 0 0 0.000150591 0.000602275 0.00135478 0.00240764 0.00376022 0.00541174 0.00736117 0.00960734 0.0121489 0.0149843 0.0181119 0.0215298 0.0252359 0.0292279 0.0335035 0.0380601 0.042895 0.0480052 0.0533877 0.0590392 0.0649563 0.0711355 0.077573 0.084265 0.0912073 0.0983959 0.105826 0.113494 0.121395 0.129524 0.137876 0.146446 0.155229 0.16422 0.173413 0.182803 0.192384 0.20215 0.212095 0.222214 0.2325 0.242948 0.25355 0.264301 0.275194 0.286222 0.297379 0.308658 0.320052 0.331555 0.343159 0.354857 0.366643 0.378509 0.390449 0.402454 0.414519 0.426634 0.438794 0.450991 0.463218 0.475466 0.487729 0.5 0.512271 0.524534 0.536782 0.549009 0.561205 0.573365 0.585481 0.597545 0.609551 0.62149 0.633357 0.645143 0.656841 0.668445 0.679948 0.691342 0.702621 0.713778 0.724806 0.735699 0.74645 0.757052 0.767499 0.777786 0.787905 0.79785 0.807616 0.817197 0.826587 0.83578 0.844771 0.853554 0.862124 0.870476 0.878605 0.886506 0.894174 0.901605 0.908793 0.915736 0.922428 0.928865 0.935044 0.940961 0.946613 0.951995 0.957106 0.96194 0.966497 0.970773 0.974765 0.978471 0.981889 0.985016 0.987852 0.990393 0.992639 0.994589 0.99624 0.997593 0.998645 0.999398 0.999849 1 0.999849 0.999398 0.998645 0.997592 0.996239 0.994588 0.992638 0.990392 0.987851 0.985015 0.981887 0.978469 0.974763 0.970771 0.966495 0.961939 0.957104 0.951993 0.946611 0.940959 0.935042 0.928863 0.922425 0.915733 0.908791 0.901602 0.894171 0.886503 0.878602 0.870473 0.862121 0.853551 0.844768 0.835777 0.826584 0.817194 0.807613 0.797847 0.787901 0.777782 0.767496 0.757048 0.746446 0.735695 0.724802 0.713774 0.702617 0.691338 0.679944 0.668441 0.656837 0.645139 0.633353 0.621486 0.609547 0.597541 0.585477 0.573361 0.561201 0.549004 0.536778 0.52453 0.512266 0.499996 0.487725 0.475462 0.463213 0.450987 0.43879 0.42663 0.414515 0.40245 0.390445 0.378505 0.366639 0.354853 0.343155 0.331551 0.320048 0.308654 0.297375 0.286218 0.27519 0.264297 0.253547 0.242944 0.232497 0.222211 0.212092 0.202146 0.19238 0.182799 0.17341 0.164217 0.155226 0.146443 0.137873 0.129521 0.121392 0.113491 0.105823 0.0983929 0.0912044 0.0842621 0.0775702 0.0711328 0.0649537 0.0590367 0.0533853 0.0480029 0.0428928 0.038058 0.0335015 0.029226 0.025234 0.0215281 0.0181104 0.0149829 0.0121476 0.00960615 0.0073601 0.00541082 0.00375944 0.00240701 0.00135431 0.000601947 0.000150442;
#X coords 0 1 256 0 40 30 1;
#X restore 22 267 graph;
#N canvas 0 23 865 565 mixer 0;
#X obj 47 106 *~;
#X obj 140 106 *~;
#X obj 50 35 inlet~;
#X obj 37 200 outlet~;
#X obj 140 200 outlet~;
#X obj 135 42 inlet~;
#X obj 213 36 inlet;
#X obj 50 152 *~ 0.3;
#X obj 147 146 *~ 0.3;
#X msg 195 60 \$1 5;
#X obj 195 84 line~;
#X connect 0 0 3 0;
#X connect 0 0 7 0;
#X connect 1 0 4 0;
#X connect 1 0 8 0;
#X connect 2 0 0 0;
#X connect 5 0 1 0;
#X connect 6 0 9 0;
#X connect 7 0 4 0;
#X connect 8 0 3 0;
#X connect 9 0 10 0;
#X connect 10 0 0 1;
#X connect 10 0 1 1;
#X restore 140 342 pd mixer;
#X obj 216 275 r gain;
#N canvas 1476 323 646 775 windDrone1 0;
#X obj 43 124 phasor~;
#X floatatom 43 99 5 0 0 0 - - - 0;
#X obj 122 248 samphold~;
#X obj 46 466 *~;
#X obj 408 282 samphold~;
#X obj 340 469 *~;
#X obj 338 235 wrap~;
#X obj 338 207 +~ 0.5;
#X obj 341 439 osc~;
#X obj 44 356 *~;
#X obj 211 85 abs~;
#X obj 211 57 noise~;
#X obj 42 266 *~ 256;
#X obj 338 286 *~ 256;
#X obj 45 398 +~;
#X obj 339 382 *~;
#X obj 340 412 +~;
#X obj 45 435 osc~;
#X obj 96 437 tabread~ soft;
#X obj 398 430 tabread~ soft;
#X obj 47 540 outlet~;
#X obj 47 502 *~ 0.2;
#X obj 38 54 * 1000;
#X obj 235 360 * 2000;
#X obj 232 248 * 2000;
#X floatatom 230 289 5 0 0 0 - - - 0;
#X floatatom 232 399 5 0 0 0 - - - 0;
#X obj 36 21 inlet A;
#X obj 223 213 inlet B;
#X obj 214 321 inlet C;
#X connect 0 0 2 1;
#X connect 0 0 7 0;
#X connect 0 0 12 0;
#X connect 1 0 0 0;
#X connect 2 0 9 0;
#X connect 3 0 21 0;
#X connect 4 0 15 0;
#X connect 5 0 21 0;
#X connect 6 0 4 1;
#X connect 6 0 13 0;
#X connect 7 0 6 0;
#X connect 8 0 5 0;
#X connect 9 0 14 0;
#X connect 10 0 2 0;
#X connect 10 0 4 0;
#X connect 11 0 10 0;
#X connect 12 0 18 0;
#X connect 13 0 19 0;
#X connect 14 0 17 0;
#X connect 15 0 16 0;
#X connect 16 0 8 0;
#X connect 17 0 3 0;
#X connect 18 0 3 1;
#X connect 19 0 5 1;
#X connect 21 0 20 0;
#X connect 22 0 1 0;
#X connect 23 0 26 0;
#X connect 23 0 14 1;
#X connect 23 0 16 1;
#X connect 24 0 25 0;
#X connect 24 0 9 1;
#X connect 24 0 15 1;
#X connect 27 0 22 0;
#X connect 28 0 24 0;
#X connect 29 0 23 0;
#X restore 97 248 pd windDrone1;
#N canvas 433 524 627 602 windDrone2 0;
#X obj 43 124 phasor~;
#X floatatom 43 99 5 0 0 0 - - - 0;
#X obj 122 248 samphold~;
#X obj 45 452 *~;
#X obj 451 258 samphold~;
#X obj 383 445 *~;
#X obj 381 211 wrap~;
#X obj 381 183 +~ 0.5;
#X obj 384 415 osc~;
#X obj 44 356 *~;
#X obj 286 83 abs~;
#X obj 286 55 noise~;
#X obj 42 266 *~ 256;
#X obj 381 262 *~ 256;
#X obj 45 386 +~;
#X obj 382 358 *~;
#X obj 383 388 +~;
#X obj 44 421 osc~;
#X obj 103 415 tabread~ soft;
#X obj 441 406 tabread~ soft;
#X obj 48 534 outlet~;
#X floatatom 220 362 5 0 0 0 - - - 0;
#X floatatom 239 259 5 0 0 0 - - - 0;
#X obj 46 488 *~ 0.2;
#X obj 239 235 + 100;
#X obj 221 338 - 100;
#X obj 239 211 * 2000;
#X obj 220 316 * 2000;
#X obj 38 54 * 1000;
#X obj 44 19 inlet A;
#X obj 235 186 inlet B;
#X obj 223 291 inlet C;
#X connect 0 0 2 1;
#X connect 0 0 7 0;
#X connect 0 0 12 0;
#X connect 1 0 0 0;
#X connect 2 0 9 0;
#X connect 3 0 23 0;
#X connect 4 0 15 0;
#X connect 5 0 23 0;
#X connect 6 0 4 1;
#X connect 6 0 13 0;
#X connect 7 0 6 0;
#X connect 8 0 5 0;
#X connect 9 0 14 0;
#X connect 10 0 2 0;
#X connect 10 0 4 0;
#X connect 11 0 10 0;
#X connect 12 0 18 0;
#X connect 13 0 19 0;
#X connect 14 0 17 0;
#X connect 15 0 16 0;
#X connect 16 0 8 0;
#X connect 17 0 3 0;
#X connect 18 0 3 1;
#X connect 19 0 5 1;
#X connect 23 0 20 0;
#X connect 24 0 9 1;
#X connect 24 0 22 0;
#X connect 24 0 15 1;
#X connect 25 0 21 0;
#X connect 25 0 14 1;
#X connect 25 0 16 1;
#X connect 26 0 24 0;
#X connect 27 0 25 0;
#X connect 28 0 1 0;
#X connect 29 0 28 0;
#X connect 30 0 26 0;
#X connect 31 0 27 0;
#X restore 220 243 pd windDrone2;
#N canvas 444 605 1335 788 crunch 0;
#X obj 50 228 *~;
#X obj 50 137 *~ 256;
#X obj 49 197 osc~;
#X obj 100 199 tabread~ soft;
#X obj 53 434 outlet~;
#X obj 51 80 inlet~;
#X obj 178 233 inlet;
#X obj 179 288 line 0 1;
#X obj 182 316 hsl 128 15 0 1 0 0 empty empty empty -2 -8 0 10 #fcfcfc #000000 #000000 0 1;
#N canvas 1509 628 738 536 filter 0;
#X floatatom 226 247 5 0 0 0 - - - 0;
#X obj 124 322 lop~;
#X obj 288 18 inlet;
#X obj 126 492 outlet~;
#X obj 111 193 inlet~;
#X obj 224 177 * 3000;
#X connect 0 0 1 1;
#X connect 1 0 3 0;
#X connect 2 0 5 0;
#X connect 4 0 1 0;
#X connect 5 0 0 0;
#X restore 52 343 pd filter;
#X obj 56 383 *~;
#X obj 119 366 r gain;
#X obj 51 264 *~ 0.3;
#X msg 179 264 \$1 1000;
#X connect 0 0 12 0;
#X connect 1 0 3 0;
#X connect 2 0 0 0;
#X connect 3 0 0 1;
#X connect 5 0 1 0;
#X connect 6 0 13 0;
#X connect 7 0 8 0;
#X connect 8 0 9 1;
#X connect 9 0 10 0;
#X connect 10 0 4 0;
#X connect 11 0 10 1;
#X connect 12 0 9 0;
#X connect 13 0 7 0;
#X restore 212 344 pd crunch;
#X obj 325 297 tgl 15 0 empty empty empty 17 7 0 10 #fcfcfc #000000 #000000 0 1;
#X obj 324 215 r crunch;
#X obj 401 297 tgl 15 0 empty empty empty 17 7 0 10 #fcfcfc #000000 #000000 0 1;
#N canvas 444 604 1335 788 ringMod 0;
#X obj 53 434 outlet~;
#X obj 46 102 inlet~;
#X obj 178 233 inlet;
#X obj 179 288 line 0 1;
#X obj 182 316 hsl 128 15 0 1 0 0 empty empty empty -2 -8 0 10 #fcfcfc #000000 #000000 0 1;
#X obj 56 383 *~;
#X obj 103 328 r gain;
#X obj 47 205 *~;
#X obj 129 162 osc~ 1;
#X obj 50 270 *~;
#X floatatom 166 119 10 0 0 0 - - - 0;
#X msg 179 264 \$1 1000;
#X obj 118 78 * 4000;
#X obj 124 105 + 1000;
#X obj 129 363 / 8;
#X obj 115 46 r freqA;
#X connect 1 0 7 0;
#X connect 2 0 11 0;
#X connect 3 0 4 0;
#X connect 4 0 9 1;
#X connect 5 0 0 0;
#X connect 6 0 14 0;
#X connect 7 0 9 0;
#X connect 8 0 7 1;
#X connect 9 0 5 0;
#X connect 10 0 8 0;
#X connect 11 0 3 0;
#X connect 12 0 13 0;
#X connect 13 0 10 0;
#X connect 14 0 5 1;
#X connect 15 0 12 0;
#X restore 325 345 pd ringMod;
#X obj 472 237 r ring;
#X obj 93 208 r freqA;
#X obj 177 206 r freqB;
#X obj 244 205 r freqC;
#X msg 351 263 0;
#X obj 349 239 loadbang;
#X floatatom 554 408 5 0 0 0 - - - 0;
#X obj 568 662 hsl 128 15 0 1 0 0 empty empty empty -2 -8 0 10 #fcfcfc #000000 #000000 0 1;
#X obj 547 446 / 100;
#X floatatom 582 501 5 0 0 0 - - - 0;
#X obj 564 622 line;
#X floatatom 595 686 5 0 0 0 - - - 0;
#X obj 567 581 pack f \$2;
#X obj 640 522 hsl 128 15 0 1 0 0 empty empty RandomSlew -2 -8 0 10 #fcfcfc #000000 #000000 0 1;
#X obj 636 542 * 300;
#X obj 621 275 r freqA;
#X obj 543 309 tgl 15 0 empty empty empty 17 7 0 10 #fcfcfc #000000 #000000 0 1;
#X obj 543 269 loadbang;
#X obj 628 326 * 100;
#X floatatom 641 297 5 0 0 0 - - - 0;
#X obj 541 340 metro 100;
#X obj 543 382 random \$1;
#X floatatom 784 401 5 0 0 0 - - - 0;
#X obj 798 655 hsl 128 15 0 1 0 0 empty empty empty -2 -8 0 10 #fcfcfc #000000 #000000 0 1;
#X obj 777 439 / 100;
#X floatatom 812 494 5 0 0 0 - - - 0;
#X obj 794 615 line;
#X floatatom 825 679 5 0 0 0 - - - 0;
#X obj 797 574 pack f \$2;
#X obj 870 515 hsl 128 15 0 1 0 0 empty empty RandomSlew -2 -8 0 10 #fcfcfc #000000 #000000 0 1;
#X obj 866 535 * 300;
#X obj 773 302 tgl 15 0 empty empty empty 17 7 0 10 #fcfcfc #000000 #000000 0 1;
#X obj 773 262 loadbang;
#X obj 858 319 * 100;
#X floatatom 871 290 5 0 0 0 - - - 0;
#X obj 772 333 metro 100;
#X obj 773 375 random \$1;
#X obj 851 267 r freqB;
#X msg 870 475 1;
#X obj 877 442 loadbang;
#X msg 667 472 1;
#X obj 674 439 loadbang;
#X floatatom 1076 437 5 0 0 0 - - - 0;
#X obj 1065 338 tgl 15 0 empty empty empty 17 7 0 10 #fcfcfc #000000 #000000 0 1;
#X obj 1065 278 loadbang;
#X obj 1064 634 bng 15 250 50 0 empty empty empty 17 7 0 10 #fcfcfc #000000 #000000;
#X obj 1062 609 t b;
#X obj 1062 585 moses \$1;
#X obj 1145 475 r freqC;
#X floatatom 1166 545 5 0 0 0 - - - 0;
#X obj 1126 545 + 20;
#X floatatom 1149 580 5 0 0 0 - - - 0;
#X obj 1064 368 metro 100;
#N canvas 602 394 1654 1024 gateToTrigger 0;
#X obj 57 70 sel 1;
#X obj 57 101 bng 15 250 50 0 empty empty empty 17 7 0 10 #fcfcfc #000000 #000000;
#X obj 84 246 + 1;
#X obj 46 246 i;
#X obj 53 138 t b b;
#X floatatom 45 276 5 0 0 0 - - - 0;
#X msg 101 206 0;
#X obj 59 44 inlet;
#X obj 41 315 outlet;
#X obj 99 172 delay 50;
#X connect 0 0 1 0;
#X connect 1 0 4 0;
#X connect 2 0 3 1;
#X connect 3 0 2 0;
#X connect 3 0 5 0;
#X connect 4 0 3 0;
#X connect 4 1 9 0;
#X connect 5 0 8 0;
#X connect 6 0 3 0;
#X connect 7 0 0 0;
#X connect 9 0 6 0;
#X restore 1082 673 pd gateToTrigger;
#X floatatom 1146 715 5 0 0 0 - - - 0;
#X obj 1161 511 * 60;
#X obj 1064 411 random 200;
#X msg 1108 638 1;
#X connect 2 0 0 0;
#X connect 2 1 0 1;
#X connect 3 0 2 2;
#X connect 4 0 2 0;
#X connect 4 0 6 0;
#X connect 4 0 10 0;
#X connect 5 0 2 1;
#X connect 5 0 10 0;
#X connect 6 0 0 0;
#X connect 6 0 0 1;
#X connect 7 0 6 1;
#X connect 8 0 7 0;
#X connect 9 0 10 1;
#X connect 10 0 0 0;
#X connect 10 0 0 1;
#X connect 11 0 9 0;
#X connect 12 0 4 0;
#X connect 12 0 5 0;
#X connect 13 0 4 2;
#X connect 13 0 5 2;
#X connect 14 0 4 1;
#X connect 14 0 5 1;
#X connect 15 0 7 0;
#X connect 15 0 9 0;
#X connect 16 0 15 0;
#X connect 18 0 22 0;
#X connect 19 0 20 0;
#X connect 19 0 23 0;
#X connect 21 0 18 0;
#X connect 23 0 21 0;
#X connect 24 0 25 0;
#X connect 25 0 23 1;
#X connect 26 0 30 0;
#X connect 26 0 29 0;
#X connect 27 0 31 0;
#X connect 28 0 27 0;
#X connect 29 0 32 1;
#X connect 31 0 32 0;
#X connect 32 0 17 0;
#X connect 32 0 19 0;
#X connect 34 0 38 0;
#X connect 35 0 36 0;
#X connect 35 0 39 0;
#X connect 37 0 34 0;
#X connect 39 0 37 0;
#X connect 40 0 41 0;
#X connect 41 0 39 1;
#X connect 42 0 46 0;
#X connect 43 0 42 0;
#X connect 44 0 47 1;
#X connect 46 0 47 0;
#X connect 47 0 33 0;
#X connect 47 0 35 0;
#X connect 48 0 45 0;
#X connect 48 0 44 0;
#X connect 49 0 40 0;
#X connect 50 0 49 0;
#X connect 51 0 24 0;
#X connect 52 0 51 0;
#X connect 54 0 63 0;
#X connect 55 0 54 0;
#X connect 56 0 68 0;
#X connect 57 0 56 0;
#X connect 58 0 57 0;
#X connect 59 0 66 0;
#X connect 61 0 62 0;
#X connect 61 0 58 1;
#X connect 63 0 67 0;
#X connect 64 0 65 0;
#X connect 66 0 60 0;
#X connect 66 0 61 0;
#X connect 67 0 53 0;
#X connect 67 0 58 0;
#X connect 68 0 64 0;
#X restore 87 270 pd windSounds;
#X obj 55 69 hsl 200 25 0 1 0 0 freqA windReset Wind-Freq-A -2 -8 0 16 #00faff #000000 #000000 0 1;
#X obj 55 124 hsl 200 25 0 1 0 0 freqB windReset Wind-Freq-B -2 -8 0 16 #00acff #000000 #000000 0 1;
#X obj 55 176 hsl 200 25 0 1 0 0 freqC windReset Wind-Freq-C -2 -8 0 16 #0046ff #000000 #000000 0 1;
#X obj 58 228 hsl 200 25 0 1 0 0 gain windReset Wind-Gain -2 -8 0 16 #11eeb1 #000000 #000000 0 1;
#X obj 304 120 bng 30 250 50 0 empty empty Wind-Reset 0 -10 0 16 #000080 #000000 #000000;
#X floatatom 304 161 5 0 0 0 - - windReset 0;
#X text 56 21 Wind Sound Controls;
#X obj 1185 281 noise~;
#X obj 1238 932 dac~;
#X obj 1658 680 loadbang;
#N canvas 69 18 458 358 fft 0;
#X obj 19 62 inlet~;
#X obj 85 214 inlet;
#X obj 19 92 rfft~;
#X obj 19 125 *~;
#X obj 50 125 *~;
#X obj 19 155 sqrt~;
#X obj 332 109 block~ 4096 1;
#X obj 19 181 biquad~ 0 0 0 0 1;
#X text 83 93 Fourier series;
#X text 88 146 magnitude;
#X text 86 131 calculate;
#X text 21 3 This subpatch computes the spectrum of the incoming signal with a (rectangular windowed) FFT. FFTs aren't properly introduced until much later.;
#X text 83 62 signal to analyze;
#X text 182 166 delay two samples;
#X text 181 182 for better graphing;
#X text 135 216 "bang" into this inlet to graph it;
#X obj 85 248 tabwrite~ wavespectrum;
#X connect 0 0 2 0;
#X connect 1 0 16 0;
#X connect 2 0 3 0;
#X connect 2 0 3 1;
#X connect 2 1 4 0;
#X connect 2 1 4 1;
#X connect 3 0 5 0;
#X connect 4 0 5 0;
#X connect 5 0 7 0;
#X connect 7 0 16 0;
#X restore 1326 895 pd fft;
#X obj 1423 876 metro 100;
#X obj 1427 558 *~;
#X obj 1185 550 *~;
#N canvas 507 9 510 683 wave1 0;
#X obj 112 346 *~;
#X obj 132 269 bng 15 250 50 0 empty empty empty 0 -6 0 8 #fcfcfc #000000 #000000;
#X obj 176 447 sig~;
#X floatatom 262 465 5 0 0 0 - - - 0;
#X obj 114 498 vcf~ 1;
#X obj 112 587 *~ 0.71;
#X msg 246 390 400;
#X obj 143 143 t b b;
#X msg 194 269 2600;
#X text 180 481 long;
#X msg 158 269 1200;
#X obj 202 177 random 1000;
#X obj 113 11 inlet~;
#X obj 206 72 inlet;
#X obj 111 628 outlet~;
#X obj 328 219 loadbang;
#X obj 132 306 az_vad~;
#X obj 27 104 spigot;
#X obj 113 547 *~;
#X obj 158 526 tgl 15 0 empty empty empty 0 -6 0 8 #fcfcfc #000000 #000000 0 1;
#X obj 24 341 del 3800;
#X obj 202 202 + 3800;
#X obj 143 226 del 3800;
#X obj 176 418 line;
#X obj 24 268 t b b b;
#X msg 24 386 400;
#X msg 176 390 800 1200;
#X obj 310 39 r density;
#X obj 310 101 * 1000;
#X floatatom 347 152 5 0 0 0 - - - 0;
#X connect 0 0 4 0;
#X connect 1 0 16 0;
#X connect 1 0 17 0;
#X connect 2 0 4 1;
#X connect 4 0 18 0;
#X connect 5 0 14 0;
#X connect 6 0 23 1;
#X connect 7 0 22 0;
#X connect 7 1 11 0;
#X connect 8 0 16 2;
#X connect 10 0 16 1;
#X connect 11 0 21 0;
#X connect 12 0 0 0;
#X connect 13 0 7 0;
#X connect 13 0 17 1;
#X connect 15 0 10 0;
#X connect 15 0 8 0;
#X connect 15 0 6 0;
#X connect 16 0 0 1;
#X connect 17 0 7 0;
#X connect 18 0 5 0;
#X connect 19 0 18 1;
#X connect 20 0 19 0;
#X connect 20 0 25 0;
#X connect 21 0 22 1;
#X connect 22 0 1 0;
#X connect 22 0 24 0;
#X connect 23 0 3 0;
#X connect 23 0 2 0;
#X connect 24 0 20 0;
#X connect 24 1 19 0;
#X connect 24 2 26 0;
#X connect 25 0 23 0;
#X connect 26 0 23 0;
#X connect 27 0 28 0;
#X connect 28 0 11 1;
#X connect 28 0 29 0;
#X restore 1185 428 pd wave1;
#N canvas -731 107 553 679 wave3 0;
#X obj 170 325 *~;
#X obj 251 420 sig~;
#X obj 169 463 vcf~ 1;
#X obj 189 230 bng 15 250 50 0 empty empty empty 0 -6 0 8 #fcfcfc #000000 #000000;
#X msg 306 390 220;
#X obj 215 105 t b b;
#X obj 274 128 random 2000;
#X msg 214 229 800;
#X msg 250 229 3500;
#X obj 189 272 az_vad~;
#X obj 168 586 hip~ 350;
#X obj 169 558 *~ 5.6;
#X obj 171 9 inlet~;
#X obj 272 44 inlet;
#X obj 167 624 outlet~;
#X obj 459 184 loadbang;
#X obj 62 86 spigot;
#X obj 169 511 *~;
#X obj 210 497 tgl 15 0 empty empty empty 0 -6 0 8 #fcfcfc #000000 #000000 0 1;
#X obj 43 265 del 4300;
#X obj 215 177 del 4300;
#X obj 274 153 + 4300;
#X obj 252 386 line;
#X obj 43 228 t b b b;
#X msg 43 315 220;
#X msg 252 358 400 1600;
#X floatatom 330 472 5 0 0 0 - - - 0;
#X obj 383 17 r density;
#X obj 383 79 * 1000;
#X floatatom 414 125 9 0 0 0 - - - 0;
#X connect 0 0 2 0;
#X connect 1 0 2 1;
#X connect 2 0 17 0;
#X connect 3 0 9 0;
#X connect 3 0 16 0;
#X connect 4 0 1 0;
#X connect 5 0 20 0;
#X connect 5 1 6 0;
#X connect 6 0 21 0;
#X connect 7 0 9 1;
#X connect 8 0 9 2;
#X connect 9 0 0 1;
#X connect 10 0 14 0;
#X connect 11 0 10 0;
#X connect 12 0 0 0;
#X connect 13 0 5 0;
#X connect 13 0 16 1;
#X connect 15 0 7 0;
#X connect 15 0 8 0;
#X connect 15 0 4 0;
#X connect 16 0 5 0;
#X connect 17 0 11 0;
#X connect 18 0 17 1;
#X connect 19 0 18 0;
#X connect 19 0 24 0;
#X connect 20 0 3 0;
#X connect 20 0 23 0;
#X connect 21 0 20 1;
#X connect 22 0 1 0;
#X connect 22 0 26 0;
#X connect 23 0 19 0;
#X connect 23 1 18 0;
#X connect 23 2 25 0;
#X connect 24 0 22 0;
#X connect 25 0 22 0;
#X connect 27 0 28 0;
#X connect 28 0 6 1;
#X connect 28 0 29 0;
#X restore 1428 430 pd wave3;
#N canvas 0 0 503 683 wave2 0;
#X obj 148 308 *~;
#X obj 178 414 sig~;
#X obj 149 468 vcf~ 1;
#X obj 166 220 bng 15 250 50 0 empty empty empty 0 -6 0 8 #fcfcfc #000000 #000000;
#X msg 266 366 295;
#X obj 221 81 t b b;
#X obj 221 158 del 3600;
#X obj 280 134 + 3600;
#X text 284 219 short burst;
#X text 224 254 replacement for ead;
#X obj 147 586 hip~ 500;
#X msg 228 218 2100;
#X obj 148 557 *~ 3.1;
#X msg 192 218 450;
#X obj 280 109 random 4000;
#X obj 149 8 inlet~;
#X obj 279 23 inlet;
#X obj 147 623 outlet~;
#X obj 415 159 loadbang;
#X obj 167 254 az_vad~;
#X obj 48 60 spigot;
#X obj 148 516 *~;
#X obj 193 495 tgl 15 0 empty empty empty 0 -6 0 8 #fcfcfc #000000 #000000 0 1;
#X obj 48 307 del 2550;
#X obj 48 270 t b b b;
#X floatatom 260 444 5 0 0 0 - - - 0;
#X obj 178 383 line;
#X msg 48 344 295;
#X msg 178 355 1100 400;
#X obj 396 17 r density;
#X obj 396 79 * 1000;
#X floatatom 414 122 5 0 0 0 - - - 0;
#X floatatom 412 44 5 0 0 0 - - - 0;
#X connect 0 0 2 0;
#X connect 1 0 2 1;
#X connect 2 0 21 0;
#X connect 3 0 19 0;
#X connect 3 0 20 0;
#X connect 4 0 1 0;
#X connect 5 0 6 0;
#X connect 5 1 14 0;
#X connect 6 0 3 0;
#X connect 6 0 24 0;
#X connect 7 0 6 1;
#X connect 10 0 17 0;
#X connect 11 0 19 2;
#X connect 12 0 10 0;
#X connect 13 0 19 1;
#X connect 14 0 7 0;
#X connect 15 0 0 0;
#X connect 16 0 5 0;
#X connect 16 0 20 1;
#X connect 18 0 13 0;
#X connect 18 0 11 0;
#X connect 18 0 4 0;
#X connect 19 0 0 1;
#X connect 20 0 5 0;
#X connect 21 0 12 0;
#X connect 22 0 21 1;
#X connect 23 0 22 0;
#X connect 23 0 27 0;
#X connect 24 0 23 0;
#X connect 24 1 22 0;
#X connect 24 2 28 0;
#X connect 26 0 1 0;
#X connect 26 0 25 0;
#X connect 27 0 26 0;
#X connect 28 0 26 0;
#X connect 29 0 30 0;
#X connect 29 0 32 0;
#X connect 30 0 14 1;
#X connect 30 0 31 0;
#X restore 1309 428 pd wave2;
#X obj 1308 555 *~;
#X obj 1446 501 r w3l;
#X obj 1327 500 r w2l;
#X obj 1204 502 r w1l;
#X obj 1501 196 tgl 15 0 empty waveOn empty 0 -6 0 8 #fcfcfc #000000 #000000 0 1;
#X obj 483 70 hsl 200 25 0 0.5 0 0 w1l w1lr Wave\ 1\ Volume -2 -8 0 16 #9c00ff #000000 #000000 0 1;
#X obj 696 70 hsl 100 25 0 1 0 0 w1p w1pr Wave1\ Pan\  -2 -8 0 16 #9c00ff #000000 #000000 0 1;
#N canvas 0 0 450 300 (subpatch) 0;
#X array wavespectrum 128 float 0;
#X coords 0 150 127 -20 440 200 1 0 0;
#X restore 426 314 graph;
#X obj 1185 612 panner1;
#X obj 1477 587 r w3p;
#X obj 1358 586 r w2p;
#X obj 1236 585 r w1p;
#X obj 1307 613 panner1;
#X obj 1426 615 panner1;
#X obj 1326 819 catch~ sumbus_R;
#X obj 1198 820 catch~ sumbus_L;
#X obj 1327 858 hip~ 20;
#X obj 1199 860 hip~ 20;
#X obj 1488 776 route 0 1;
#X obj 1583 665 tgl 15 0 empty graphOn A/B 17 7 0 10 #fcfcfc #000000 #000000 0 1;
#X obj 1488 756 list prepend 0;
#X msg 1488 833 0;
#X msg 1540 834 1;
#X obj 1488 702 bng 19 250 50 0 empty graphOn empty 0 -10 0 12 #fcfcfc #000000 #000000;
#X obj 1548 558 *~;
#X obj 1547 616 panner1;
#N canvas 877 38 503 683 wave4 0;
#X obj 148 308 *~;
#X obj 178 414 sig~;
#X obj 149 468 vcf~ 1;
#X obj 166 220 bng 15 250 50 0 empty empty empty 0 -6 0 8 #fcfcfc #000000 #000000;
#X msg 266 366 295;
#X obj 221 81 t b b;
#X text 284 219 short burst;
#X text 224 254 replacement for ead;
#X obj 147 586 hip~ 500;
#X obj 148 557 *~ 3.1;
#X obj 149 8 inlet~;
#X obj 279 23 inlet;
#X obj 147 623 outlet~;
#X obj 415 159 loadbang;
#X obj 167 254 az_vad~;
#X obj 48 60 spigot;
#X obj 148 516 *~;
#X obj 193 495 tgl 15 0 empty empty empty 0 -6 0 8 #fcfcfc #000000 #000000 0 1;
#X obj 48 270 t b b b;
#X floatatom 260 444 5 0 0 0 - - - 0;
#X obj 178 383 line;
#X msg 48 344 295;
#X msg 178 355 1100 400;
#X obj 396 17 r density;
#X obj 396 79 * 1000;
#X floatatom 414 122 5 0 0 0 - - - 0;
#X obj 280 109 random 5000;
#X obj 280 134 + 2300;
#X obj 221 158 del 5100;
#X msg 192 218 350;
#X msg 227 218 2700;
#X obj 48 307 del 5100;
#X connect 0 0 2 0;
#X connect 1 0 2 1;
#X connect 2 0 16 0;
#X connect 3 0 14 0;
#X connect 3 0 15 0;
#X connect 4 0 1 0;
#X connect 5 0 28 0;
#X connect 5 1 26 0;
#X connect 8 0 12 0;
#X connect 9 0 8 0;
#X connect 10 0 0 0;
#X connect 11 0 5 0;
#X connect 11 0 15 1;
#X connect 13 0 29 0;
#X connect 13 0 30 0;
#X connect 13 0 4 0;
#X connect 14 0 0 1;
#X connect 15 0 5 0;
#X connect 16 0 9 0;
#X connect 17 0 16 1;
#X connect 18 0 31 0;
#X connect 18 1 17 0;
#X connect 18 2 22 0;
#X connect 20 0 1 0;
#X connect 20 0 19 0;
#X connect 21 0 20 0;
#X connect 22 0 20 0;
#X connect 23 0 24 0;
#X connect 24 0 25 0;
#X connect 24 0 26 1;
#X connect 26 0 27 0;
#X connect 27 0 28 1;
#X connect 28 0 3 0;
#X connect 28 0 18 0;
#X connect 29 0 14 1;
#X connect 30 0 14 2;
#X connect 31 0 17 0;
#X connect 31 0 21 0;
#X restore 1549 431 pd wave4;
#X obj 1567 503 r w4l;
#X obj 1598 589 r w4p;
#X obj 894 119 tgl 50 0 waveOn empty Toggle\ Waves -22 -12 0 16 #9c00ff #faff00 #000000 0 1;
#X obj 483 116 hsl 200 25 0 0.5 0 0 w2l w2lr Wave\ 2\ Volume -2 -8 0 16 #9c00ff #000000 #000000 0 1;
#X obj 696 116 hsl 100 25 0 1 0 0 w2p w2pr Wave\ 2\ Pan\  -2 -8 0 16 #9c00ff #000000 #000000 0 1;
#X obj 482 161 hsl 200 25 0 0.5 0 0 w3l w3lr Wave\ 3\ Volume -2 -8 0 16 #9c00ff #000000 #000000 0 1;
#X obj 695 161 hsl 100 25 0 1 0 0 w3p w3pr Wave\ 3\ Pan\  -2 -8 0 16 #9c00ff #000000 #000000 0 1;
#X obj 482 207 hsl 200 25 0 0.5 0 0 w4l w4lr Wave\ 4\ Volume -2 -8 0 16 #9c00ff #000000 #000000 0 1;
#X obj 695 207 hsl 100 25 0 1 0 0 w4p w4pr Wave\ 4\ Pan\  -2 -8 0 16 #9c00ff #000000 #000000 0 1;
#X obj 544 264 hsl 200 25 0 15 0 0 density densityr Wave\ Density -2 -8 0 16 #9c00ff #000000 #000000 0 1;
#X msg 1659 725 \; w1lr 0.2 \; w2lr 0.1 \; w3lr 0.5 \; w4lr 0.1 \; w1pr 0.45 \; w2pr 0.55 \; w3pr 0.5 \; w4pr 0.5 \; density 12 \;;
#X obj 629 563 bng 50 250 50 0 graphOn empty Toggle\ Graph -22 -12 0 16 #9c00ff #000000 #000000;
#X text 481 21 Wave Sound Controls;
#X connect 5 0 6 0;
#X connect 8 0 15 0;
#X connect 8 0 17 0;
#X connect 8 0 16 0;
#X connect 8 0 44 0;
#X connect 10 0 55 0;
#X connect 12 0 11 1;
#X connect 13 0 31 0;
#X connect 14 0 26 0;
#X connect 15 0 14 0;
#X connect 16 0 13 0;
#X connect 17 0 18 0;
#X connect 18 0 30 0;
#X connect 19 0 13 1;
#X connect 20 0 18 1;
#X connect 21 0 14 1;
#X connect 22 0 15 1;
#X connect 22 0 17 1;
#X connect 22 0 16 1;
#X connect 22 0 44 1;
#X connect 27 0 31 1;
#X connect 28 0 30 1;
#X connect 29 0 26 1;
#X connect 32 0 34 0;
#X connect 33 0 35 0;
#X connect 34 0 9 1;
#X connect 34 0 11 0;
#X connect 35 0 9 0;
#X connect 35 0 11 0;
#X connect 36 0 39 0;
#X connect 36 1 40 0;
#X connect 37 0 38 1;
#X connect 38 0 36 0;
#X connect 39 0 12 0;
#X connect 40 0 12 0;
#X connect 41 0 38 0;
#X connect 42 0 43 0;
#X connect 44 0 42 0;
#X connect 45 0 42 1;
#X connect 46 0 43 1;
