#N canvas 101 0 1920 988 12;
#X obj 1091 112 bng 50 250 50 0 randomize randoStart RANDOMISE 0 -10 0 20 #bbbbbb #000000 #000000;
#X msg 1074 775 36;
#X obj 1074 815 s note1;
#X obj 966 129 tgl 30 0 toggle startToggle Toggle\ Variance 0 -10 0 12 #ff8300 #000000 #000000 0 1;
#X obj 1454 904 r toggle;
#X obj 1455 1036 snapshot~;
#X floatatom 1456 1089 5 0 0 0 - - - 0;
#X obj 1459 1132 * 0.075;
#X obj 1460 1176 s LFO;
#X obj 1108 921 catch~ out;
#X obj 1115 1112 dac~;
#X obj 1241 984 hip~ 600;
#X obj 1240 1018 delwrite~ delBuff 900;
#X obj 1242 1055 delread~ delBuff 900;
#X obj 1243 1091 *~ 0.9;
#X obj 1243 1125 lop~ 4000;
#X obj 1245 1169 throw~ out;
#X obj 1510 989 osc~ 4;
#X obj 884 34 vsl 30 250 0 0.3 0 0 mVolume startVol MasterVolume 0 -9 0 12 #ff8300 #000000 #000000 0 1;
#X obj 1454 938 metro 30;
#N canvas -1914 -13 1920 997 note1 0;
#X obj 43 137 r LFO;
#X obj 43 315 +;
#X floatatom 70 279 5 0 0 0 - - - 0;
#X obj 70 240 r note1;
#X floatatom 42 364 5 0 0 0 - - - 0;
#X obj 42 402 mtof;
#X floatatom 42 449 5 0 0 0 - - - 0;
#X obj 42 495 phasor~;
#X obj 42 594 *~;
#X obj 43 645 *~ 0.1;
#X obj 42 704 throw~ out;
#X text 95 644 volume;
#X floatatom 148 541 5 0 0 0 - - - 0;
#X obj 148 505 line 0 3;
#X obj 218 357 delay 2000;
#X obj 154 329 bng 19 250 50 0 empty empty empty 0 -10 0 12 #fcfcfc #000000 #000000;
#X obj 154 292 metro 10000;
#X floatatom 229 145 5 0 0 0 - - - 0;
#X obj 229 108 + 10000;
#X obj 229 68 random 30000;
#X obj 229 24 r randomize;
#X floatatom 337 337 5 0 0 0 - - - 0;
#X obj 337 216 r randomize;
#X msg 150 438 1 300;
#X msg 222 439 0 700;
#X obj 41 529 lop~ 6000;
#X floatatom 143 608 5 0 0 0 - - - 0;
#X obj 228 574 r mVolume;
#X obj 396 338 s note1Delay;
#X obj 506 274 r note1DelayR;
#X obj 282 146 s note1Loop;
#X obj 307 109 r note1LoopR;
#X obj 337 260 random 3000;
#X obj 337 300 + 1000;
#X obj 173 249 bng 19 250 50 0 empty empty empty 0 -10 0 12 #fcfcfc #000000 #000000;
#X obj 155 186 r note1Toggle;
#X connect 0 0 1 0;
#X connect 1 0 4 0;
#X connect 2 0 1 1;
#X connect 3 0 2 0;
#X connect 4 0 5 0;
#X connect 5 0 6 0;
#X connect 6 0 7 0;
#X connect 7 0 25 0;
#X connect 8 0 9 0;
#X connect 9 0 10 0;
#X connect 12 0 8 1;
#X connect 13 0 12 0;
#X connect 14 0 24 0;
#X connect 15 0 14 0;
#X connect 15 0 23 0;
#X connect 16 0 15 0;
#X connect 17 0 16 1;
#X connect 18 0 17 0;
#X connect 18 0 30 0;
#X connect 19 0 18 0;
#X connect 20 0 19 0;
#X connect 21 0 14 1;
#X connect 22 0 32 0;
#X connect 23 0 13 0;
#X connect 24 0 13 0;
#X connect 25 0 8 0;
#X connect 26 0 9 1;
#X connect 27 0 26 0;
#X connect 29 0 21 0;
#X connect 31 0 17 0;
#X connect 32 0 33 0;
#X connect 33 0 21 0;
#X connect 33 0 28 0;
#X connect 35 0 16 0;
#X connect 35 0 34 0;
#X restore 16 963 pd note1;
#N canvas -1538 58 1920 997 note2 0;
#X obj 43 137 r LFO;
#X obj 43 315 +;
#X floatatom 70 279 5 0 0 0 - - - 0;
#X floatatom 42 364 5 0 0 0 - - - 0;
#X obj 42 402 mtof;
#X floatatom 42 449 5 0 0 0 - - - 0;
#X obj 42 495 phasor~;
#X obj 42 594 *~;
#X obj 43 645 *~ 0.1;
#X obj 42 704 throw~ out;
#X text 95 644 volume;
#X floatatom 148 541 5 0 0 0 - - - 0;
#X obj 148 505 line 0 3;
#X obj 218 357 delay 2000;
#X obj 154 329 bng 19 250 50 0 empty empty empty 0 -10 0 12 #fcfcfc #000000 #000000;
#X obj 154 292 metro 10000;
#X floatatom 229 145 5 0 0 0 - - - 0;
#X obj 229 108 + 10000;
#X obj 229 68 random 30000;
#X obj 229 24 r randomize;
#X floatatom 389 288 5 0 0 0 - - - 0;
#X obj 389 167 r randomize;
#X msg 150 438 1 300;
#X msg 222 439 0 700;
#X obj 41 529 lop~ 6000;
#X floatatom 143 608 5 0 0 0 - - - 0;
#X obj 228 574 r mVolume;
#X obj 389 211 random 3000;
#X obj 389 251 + 1000;
#X obj 282 146 s note2Loop;
#X obj 307 109 r note2LoopR;
#X obj 558 225 r note2DelayR;
#X obj 448 289 s note2Delay;
#X obj 70 240 r note2;
#X obj 273 257 bng 19 250 50 0 empty empty empty 0 -10 0 12 #fcfcfc #000000 #000000;
#X obj 154 236 r note2Toggle;
#X connect 0 0 1 0;
#X connect 1 0 3 0;
#X connect 2 0 1 1;
#X connect 3 0 4 0;
#X connect 4 0 5 0;
#X connect 5 0 6 0;
#X connect 6 0 24 0;
#X connect 7 0 8 0;
#X connect 8 0 9 0;
#X connect 11 0 7 1;
#X connect 12 0 11 0;
#X connect 13 0 23 0;
#X connect 14 0 13 0;
#X connect 14 0 22 0;
#X connect 15 0 14 0;
#X connect 16 0 15 1;
#X connect 17 0 16 0;
#X connect 17 0 29 0;
#X connect 18 0 17 0;
#X connect 19 0 18 0;
#X connect 20 0 13 1;
#X connect 21 0 27 0;
#X connect 22 0 12 0;
#X connect 23 0 12 0;
#X connect 24 0 7 0;
#X connect 25 0 8 1;
#X connect 26 0 25 0;
#X connect 27 0 28 0;
#X connect 28 0 20 0;
#X connect 28 0 32 0;
#X connect 30 0 16 0;
#X connect 31 0 20 0;
#X connect 33 0 2 0;
#X connect 35 0 15 0;
#X connect 35 0 34 0;
#X restore 83 962 pd note2;
#X msg 1129 775 40;
#X obj 1138 814 s note2;
#X obj 45 273 vsl 35 200 5000 40000 0 0 note2LoopR note2Loop Note\ 2\ Loop\ Time -30 -12 0 12 #faff00 #000000 #000000 0 1;
#X obj 162 273 vsl 35 200 100 4000 0 0 note2DelayR note2Delay Note\ 2\ Delay -20 -12 0 12 #faff00 #000000 #000000 0 1;
#X obj 253 357 tgl 30 0 note2Toggle empty Note\ 2\ Toggle 0 -10 0 12 #faff00 #000000 #000000 0 1;
#N canvas 647 -9 1920 997 note3 0;
#X obj 43 137 r LFO;
#X obj 43 315 +;
#X floatatom 70 279 5 0 0 0 - - - 0;
#X floatatom 42 364 5 0 0 0 - - - 0;
#X obj 42 402 mtof;
#X floatatom 42 449 5 0 0 0 - - - 0;
#X obj 42 495 phasor~;
#X obj 42 594 *~;
#X obj 43 645 *~ 0.1;
#X obj 42 704 throw~ out;
#X text 95 644 volume;
#X floatatom 148 541 5 0 0 0 - - - 0;
#X obj 148 505 line 0 3;
#X obj 218 357 delay 2000;
#X obj 154 329 bng 19 250 50 0 empty empty empty 0 -10 0 12 #fcfcfc #000000 #000000;
#X obj 154 292 metro 10000;
#X floatatom 229 145 5 0 0 0 - - - 0;
#X obj 229 108 + 10000;
#X obj 229 68 random 30000;
#X obj 229 24 r randomize;
#X floatatom 389 288 5 0 0 0 - - - 0;
#X obj 389 167 r randomize;
#X msg 150 438 1 300;
#X msg 222 439 0 700;
#X obj 41 529 lop~ 6000;
#X floatatom 143 608 5 0 0 0 - - - 0;
#X obj 228 574 r mVolume;
#X obj 389 211 random 3000;
#X obj 389 251 + 1000;
#X obj 273 257 bng 19 250 50 0 empty empty empty 0 -10 0 12 #fcfcfc #000000 #000000;
#X obj 307 109 r note3LoopR;
#X obj 282 146 s note3Loop;
#X obj 558 225 r note3DelayR;
#X obj 448 289 s note3Delay;
#X obj 154 236 r note3Toggle;
#X obj 70 239 r note3;
#X connect 0 0 1 0;
#X connect 1 0 3 0;
#X connect 2 0 1 1;
#X connect 3 0 4 0;
#X connect 4 0 5 0;
#X connect 5 0 6 0;
#X connect 6 0 24 0;
#X connect 7 0 8 0;
#X connect 8 0 9 0;
#X connect 11 0 7 1;
#X connect 12 0 11 0;
#X connect 13 0 23 0;
#X connect 14 0 13 0;
#X connect 14 0 22 0;
#X connect 15 0 14 0;
#X connect 16 0 15 1;
#X connect 17 0 16 0;
#X connect 17 0 31 0;
#X connect 18 0 17 0;
#X connect 19 0 18 0;
#X connect 20 0 13 1;
#X connect 21 0 27 0;
#X connect 22 0 12 0;
#X connect 23 0 12 0;
#X connect 24 0 7 0;
#X connect 25 0 8 1;
#X connect 26 0 25 0;
#X connect 27 0 28 0;
#X connect 28 0 20 0;
#X connect 28 0 33 0;
#X connect 30 0 16 0;
#X connect 32 0 20 0;
#X connect 34 0 15 0;
#X connect 34 0 29 0;
#X connect 35 0 2 0;
#X restore 152 962 pd note3;
#N canvas -1843 79 1920 997 note4 0;
#X obj 43 137 r LFO;
#X obj 43 315 +;
#X floatatom 70 279 5 0 0 0 - - - 0;
#X floatatom 42 364 5 0 0 0 - - - 0;
#X obj 42 402 mtof;
#X floatatom 42 449 5 0 0 0 - - - 0;
#X obj 42 495 phasor~;
#X obj 42 594 *~;
#X obj 43 645 *~ 0.1;
#X obj 42 704 throw~ out;
#X text 95 644 volume;
#X floatatom 148 541 5 0 0 0 - - - 0;
#X obj 148 505 line 0 3;
#X obj 218 357 delay 2000;
#X obj 154 329 bng 19 250 50 0 empty empty empty 0 -10 0 12 #fcfcfc #000000 #000000;
#X obj 154 292 metro 10000;
#X floatatom 229 145 5 0 0 0 - - - 0;
#X obj 229 108 + 10000;
#X obj 229 68 random 30000;
#X obj 229 24 r randomize;
#X floatatom 389 288 5 0 0 0 - - - 0;
#X obj 389 167 r randomize;
#X msg 150 438 1 300;
#X msg 222 439 0 700;
#X obj 41 529 lop~ 6000;
#X floatatom 143 608 5 0 0 0 - - - 0;
#X obj 228 574 r mVolume;
#X obj 389 211 random 3000;
#X obj 389 251 + 1000;
#X obj 273 257 bng 19 250 50 0 empty empty empty 0 -10 0 12 #fcfcfc #000000 #000000;
#X obj 307 109 r note4LoopR;
#X obj 282 146 s note4Loop;
#X obj 558 225 r note4DelayR;
#X obj 448 289 s note4Delay;
#X obj 71 240 r note4;
#X obj 154 236 r note4Toggle;
#X connect 0 0 1 0;
#X connect 1 0 3 0;
#X connect 2 0 1 1;
#X connect 3 0 4 0;
#X connect 4 0 5 0;
#X connect 5 0 6 0;
#X connect 6 0 24 0;
#X connect 7 0 8 0;
#X connect 8 0 9 0;
#X connect 11 0 7 1;
#X connect 12 0 11 0;
#X connect 13 0 23 0;
#X connect 14 0 13 0;
#X connect 14 0 22 0;
#X connect 15 0 14 0;
#X connect 16 0 15 1;
#X connect 17 0 16 0;
#X connect 17 0 31 0;
#X connect 18 0 17 0;
#X connect 19 0 18 0;
#X connect 20 0 13 1;
#X connect 21 0 27 0;
#X connect 22 0 12 0;
#X connect 23 0 12 0;
#X connect 24 0 7 0;
#X connect 25 0 8 1;
#X connect 26 0 25 0;
#X connect 27 0 28 0;
#X connect 28 0 20 0;
#X connect 28 0 33 0;
#X connect 30 0 16 0;
#X connect 32 0 20 0;
#X connect 34 0 2 0;
#X connect 35 0 15 0;
#X connect 35 0 29 0;
#X restore 217 962 pd note4;
#N canvas -1538 58 1920 997 note5 0;
#X obj 43 137 r LFO;
#X obj 43 315 +;
#X floatatom 70 279 5 0 0 0 - - - 0;
#X floatatom 42 364 5 0 0 0 - - - 0;
#X obj 42 402 mtof;
#X floatatom 42 449 5 0 0 0 - - - 0;
#X obj 42 495 phasor~;
#X obj 42 594 *~;
#X obj 43 645 *~ 0.1;
#X obj 42 704 throw~ out;
#X text 95 644 volume;
#X floatatom 148 541 5 0 0 0 - - - 0;
#X obj 148 505 line 0 3;
#X obj 218 357 delay 2000;
#X obj 154 329 bng 19 250 50 0 empty empty empty 0 -10 0 12 #fcfcfc #000000 #000000;
#X obj 154 292 metro 10000;
#X floatatom 229 145 5 0 0 0 - - - 0;
#X obj 229 108 + 10000;
#X obj 229 68 random 30000;
#X obj 229 24 r randomize;
#X floatatom 389 288 5 0 0 0 - - - 0;
#X obj 389 167 r randomize;
#X msg 150 438 1 300;
#X msg 222 439 0 700;
#X obj 41 529 lop~ 6000;
#X floatatom 143 608 5 0 0 0 - - - 0;
#X obj 228 574 r mVolume;
#X obj 389 211 random 3000;
#X obj 389 251 + 1000;
#X obj 273 257 bng 19 250 50 0 empty empty empty 0 -10 0 12 #fcfcfc #000000 #000000;
#X obj 307 109 r note5LoopR;
#X obj 282 146 s note5Loop;
#X obj 448 289 s note5Delay;
#X obj 558 225 r note5DelayR;
#X obj 154 236 r note5Toggle;
#X obj 70 239 r note5;
#X connect 0 0 1 0;
#X connect 1 0 3 0;
#X connect 2 0 1 1;
#X connect 3 0 4 0;
#X connect 4 0 5 0;
#X connect 5 0 6 0;
#X connect 6 0 24 0;
#X connect 7 0 8 0;
#X connect 8 0 9 0;
#X connect 11 0 7 1;
#X connect 12 0 11 0;
#X connect 13 0 23 0;
#X connect 14 0 13 0;
#X connect 14 0 22 0;
#X connect 15 0 14 0;
#X connect 16 0 15 1;
#X connect 17 0 16 0;
#X connect 17 0 31 0;
#X connect 18 0 17 0;
#X connect 19 0 18 0;
#X connect 20 0 13 1;
#X connect 21 0 27 0;
#X connect 22 0 12 0;
#X connect 23 0 12 0;
#X connect 24 0 7 0;
#X connect 25 0 8 1;
#X connect 26 0 25 0;
#X connect 27 0 28 0;
#X connect 28 0 20 0;
#X connect 28 0 32 0;
#X connect 30 0 16 0;
#X connect 33 0 20 0;
#X connect 34 0 15 0;
#X connect 34 0 29 0;
#X connect 35 0 2 0;
#X restore 285 962 pd note5;
#N canvas -1538 58 1920 997 note6 0;
#X obj 43 137 r LFO;
#X obj 43 315 +;
#X floatatom 70 279 5 0 0 0 - - - 0;
#X floatatom 42 364 5 0 0 0 - - - 0;
#X obj 42 402 mtof;
#X floatatom 42 449 5 0 0 0 - - - 0;
#X obj 42 495 phasor~;
#X obj 42 594 *~;
#X obj 43 645 *~ 0.1;
#X obj 42 704 throw~ out;
#X text 95 644 volume;
#X floatatom 148 541 5 0 0 0 - - - 0;
#X obj 148 505 line 0 3;
#X obj 218 357 delay 2000;
#X obj 154 329 bng 19 250 50 0 empty empty empty 0 -10 0 12 #fcfcfc #000000 #000000;
#X obj 154 292 metro 10000;
#X floatatom 229 145 5 0 0 0 - - - 0;
#X obj 229 108 + 10000;
#X obj 229 68 random 30000;
#X obj 229 24 r randomize;
#X floatatom 389 288 5 0 0 0 - - - 0;
#X obj 389 167 r randomize;
#X msg 150 438 1 300;
#X msg 222 439 0 700;
#X obj 41 529 lop~ 6000;
#X floatatom 143 608 5 0 0 0 - - - 0;
#X obj 228 574 r mVolume;
#X obj 389 211 random 3000;
#X obj 389 251 + 1000;
#X obj 273 257 bng 19 250 50 0 empty empty empty 0 -10 0 12 #fcfcfc #000000 #000000;
#X obj 307 109 r note6LoopR;
#X obj 282 146 s note6Loop;
#X obj 448 289 s note6Delay;
#X obj 559 225 r note6DelayR;
#X obj 154 236 r note6Toggle;
#X obj 70 240 r note6;
#X connect 0 0 1 0;
#X connect 1 0 3 0;
#X connect 2 0 1 1;
#X connect 3 0 4 0;
#X connect 4 0 5 0;
#X connect 5 0 6 0;
#X connect 6 0 24 0;
#X connect 7 0 8 0;
#X connect 8 0 9 0;
#X connect 11 0 7 1;
#X connect 12 0 11 0;
#X connect 13 0 23 0;
#X connect 14 0 13 0;
#X connect 14 0 22 0;
#X connect 15 0 14 0;
#X connect 16 0 15 1;
#X connect 17 0 16 0;
#X connect 17 0 31 0;
#X connect 18 0 17 0;
#X connect 19 0 18 0;
#X connect 20 0 13 1;
#X connect 21 0 27 0;
#X connect 22 0 12 0;
#X connect 23 0 12 0;
#X connect 24 0 7 0;
#X connect 25 0 8 1;
#X connect 26 0 25 0;
#X connect 27 0 28 0;
#X connect 28 0 20 0;
#X connect 28 0 32 0;
#X connect 30 0 16 0;
#X connect 33 0 20 0;
#X connect 34 0 15 0;
#X connect 34 0 29 0;
#X connect 35 0 2 0;
#X restore 356 961 pd note6;
#N canvas -1538 58 1920 997 note7 0;
#X obj 43 137 r LFO;
#X obj 43 315 +;
#X floatatom 70 279 5 0 0 0 - - - 0;
#X floatatom 42 364 5 0 0 0 - - - 0;
#X obj 42 402 mtof;
#X floatatom 42 449 5 0 0 0 - - - 0;
#X obj 42 495 phasor~;
#X obj 42 594 *~;
#X obj 43 645 *~ 0.1;
#X obj 42 704 throw~ out;
#X text 95 644 volume;
#X floatatom 148 541 5 0 0 0 - - - 0;
#X obj 148 505 line 0 3;
#X obj 218 357 delay 2000;
#X obj 154 329 bng 19 250 50 0 empty empty empty 0 -10 0 12 #fcfcfc #000000 #000000;
#X obj 154 292 metro 10000;
#X floatatom 229 145 5 0 0 0 - - - 0;
#X obj 229 108 + 10000;
#X obj 229 68 random 30000;
#X obj 229 24 r randomize;
#X floatatom 389 288 5 0 0 0 - - - 0;
#X obj 389 167 r randomize;
#X msg 150 438 1 300;
#X msg 222 439 0 700;
#X obj 41 529 lop~ 6000;
#X floatatom 143 608 5 0 0 0 - - - 0;
#X obj 228 574 r mVolume;
#X obj 389 211 random 3000;
#X obj 389 251 + 1000;
#X obj 273 257 bng 19 250 50 0 empty empty empty 0 -10 0 12 #fcfcfc #000000 #000000;
#X obj 558 225 r note7DelayR;
#X obj 448 289 s note7Delay;
#X obj 307 109 r note7LoopR;
#X obj 282 146 s note7Loop;
#X obj 154 236 r note7Toggle;
#X obj 71 240 r note7;
#X connect 0 0 1 0;
#X connect 1 0 3 0;
#X connect 2 0 1 1;
#X connect 3 0 4 0;
#X connect 4 0 5 0;
#X connect 5 0 6 0;
#X connect 6 0 24 0;
#X connect 7 0 8 0;
#X connect 8 0 9 0;
#X connect 11 0 7 1;
#X connect 12 0 11 0;
#X connect 13 0 23 0;
#X connect 14 0 13 0;
#X connect 14 0 22 0;
#X connect 15 0 14 0;
#X connect 16 0 15 1;
#X connect 17 0 16 0;
#X connect 17 0 33 0;
#X connect 18 0 17 0;
#X connect 19 0 18 0;
#X connect 20 0 13 1;
#X connect 21 0 27 0;
#X connect 22 0 12 0;
#X connect 23 0 12 0;
#X connect 24 0 7 0;
#X connect 25 0 8 1;
#X connect 26 0 25 0;
#X connect 27 0 28 0;
#X connect 28 0 20 0;
#X connect 28 0 31 0;
#X connect 30 0 20 0;
#X connect 32 0 16 0;
#X connect 34 0 15 0;
#X connect 34 0 29 0;
#X connect 35 0 2 0;
#X restore 431 960 pd note7;
#X obj 48 45 vsl 35 200 5000 40000 0 0 note1LoopR note1Loop Note\ 1\ Loop\ Time -30 -12 0 12 #00ff04 #000000 #000000 0 1;
#X obj 165 45 vsl 35 200 100 4000 0 0 note1DelayR note1Delay Note\ 1\ Delay -20 -12 0 12 #00ff04 #000000 #000000 0 1;
#X obj 256 129 tgl 30 0 note1Toggle empty Note\ 1\ Toggle 0 -10 0 12 #00ff04 #000000 #000000 0 1;
#X obj 45 515 vsl 35 200 5000 40000 0 0 note3LoopR note3Loop Note\ 3\ Loop\ Time -30 -12 0 12 #00faff #000000 #000000 0 1;
#X obj 162 515 vsl 35 200 100 4000 0 0 note3DelayR note3Delay Note\ 3\ Delay -20 -12 0 12 #00faff #000000 #000000 0 1;
#X obj 253 599 tgl 30 0 note3Toggle empty Note\ 3\ Toggle 0 -10 0 12 #00faff #000000 #000000 0 1;
#X obj 47 753 vsl 35 200 5000 40000 0 0 note4LoopR note4Loop Note\ 4\ Loop\ Time -30 -12 0 12 #0400ff #000000 #000000 0 1;
#X obj 164 753 vsl 35 200 100 4000 0 0 note4DelayR note4Delay Note\ 4\ Delay -20 -12 0 12 #0400ff #000000 #000000 0 1;
#X obj 255 837 tgl 30 0 note4Toggle empty Note\ 4\ Toggle 0 -10 0 12 #0400ff #000000 #000000 0 1;
#X obj 545 43 vsl 35 200 5000 40000 0 0 note5LoopR note5Loop Note\ 5\ Loop\ Time -30 -12 0 12 #9c00ff #000000 #000000 0 1;
#X obj 662 43 vsl 35 200 100 4000 0 0 note5DelayR note5Delay Note\ 5\ Delay -20 -12 0 12 #9c00ff #000000 #000000 0 1;
#X obj 753 127 tgl 30 0 note5Toggle empty Note\ 5\ Toggle 0 -10 0 12 #9c00ff #000000 #000000 0 1;
#N canvas -1538 58 1920 997 note8 0;
#X obj 110 111 r LFO;
#X obj 43 315 +;
#X floatatom 70 279 5 0 0 0 - - - 0;
#X floatatom 42 364 5 0 0 0 - - - 0;
#X obj 42 402 mtof;
#X floatatom 42 449 5 0 0 0 - - - 0;
#X obj 42 495 phasor~;
#X obj 42 594 *~;
#X obj 43 645 *~ 0.1;
#X obj 42 704 throw~ out;
#X text 95 644 volume;
#X floatatom 148 541 5 0 0 0 - - - 0;
#X obj 148 505 line 0 3;
#X obj 218 357 delay 2000;
#X obj 154 329 bng 19 250 50 0 empty empty empty 0 -10 0 12 #fcfcfc #000000 #000000;
#X obj 154 292 metro 10000;
#X floatatom 229 145 5 0 0 0 - - - 0;
#X obj 229 108 + 10000;
#X obj 229 68 random 30000;
#X obj 229 24 r randomize;
#X floatatom 389 288 5 0 0 0 - - - 0;
#X obj 389 167 r randomize;
#X msg 150 438 1 300;
#X msg 222 439 0 700;
#X obj 41 529 lop~ 6000;
#X floatatom 143 608 5 0 0 0 - - - 0;
#X obj 228 574 r mVolume;
#X obj 389 211 random 3000;
#X obj 389 251 + 1000;
#X obj 273 257 bng 19 250 50 0 empty empty empty 0 -10 0 12 #fcfcfc #000000 #000000;
#X obj 307 108 r note8LoopR;
#X obj 282 146 s note8Loop;
#X obj 558 225 r note8DelayR;
#X obj 448 289 s note8Delay;
#X obj 70 240 r note8;
#X obj 154 236 r note8Toggle;
#X connect 0 0 1 0;
#X connect 1 0 3 0;
#X connect 2 0 1 1;
#X connect 3 0 4 0;
#X connect 4 0 5 0;
#X connect 5 0 6 0;
#X connect 6 0 24 0;
#X connect 7 0 8 0;
#X connect 8 0 9 0;
#X connect 11 0 7 1;
#X connect 12 0 11 0;
#X connect 13 0 23 0;
#X connect 14 0 13 0;
#X connect 14 0 22 0;
#X connect 15 0 14 0;
#X connect 16 0 15 1;
#X connect 17 0 16 0;
#X connect 17 0 31 0;
#X connect 18 0 17 0;
#X connect 19 0 18 0;
#X connect 20 0 13 1;
#X connect 21 0 27 0;
#X connect 22 0 12 0;
#X connect 23 0 12 0;
#X connect 24 0 7 0;
#X connect 25 0 8 1;
#X connect 26 0 25 0;
#X connect 27 0 28 0;
#X connect 28 0 20 0;
#X connect 28 0 33 0;
#X connect 30 0 16 0;
#X connect 32 0 20 0;
#X connect 34 0 2 0;
#X connect 35 0 15 0;
#X connect 35 0 29 0;
#X coords 0 997 1 996 85 60 0;
#X restore 501 960 pd note8;
#X obj 545 275 vsl 35 200 5000 40000 0 0 note6LoopR note6Loop Note\ 6\ Loop\ Time -30 -12 0 12 #e3c6ff #000000 #000000 0 1;
#X obj 662 275 vsl 35 200 100 4000 0 0 note6DelayR note6Delay Note\ 6\ Delay -20 -12 0 12 #e3c6ff #000000 #000000 0 1;
#X obj 753 359 tgl 30 0 note6Toggle empty Note\ 6\ Toggle 0 -10 0 12 #e3c6ff #000000 #000000 0 1;
#X obj 543 511 vsl 35 200 5000 40000 0 0 note7LoopR note7Loop Note\ 7\ Loop\ Time -30 -12 0 12 #ffc7c6 #000000 #000000 0 1;
#X obj 660 511 vsl 35 200 100 4000 0 0 note7DelayR note7Delay Note\ 7\ Delay -20 -12 0 12 #ffc7c6 #000000 #000000 0 1;
#X obj 751 595 tgl 30 0 note7Toggle empty Note\ 7\ Toggle 0 -10 0 12 #ffc7c6 #000000 #000000 0 1;
#X obj 544 747 vsl 35 200 5000 40000 0 0 note8LoopR note8Loop Note\ 8\ Loop\ Time -30 -12 0 12 #c6feff #000000 #000000 0 1;
#X obj 661 747 vsl 35 200 100 4000 0 0 note8DelayR note8Delay Note\ 8\ Delay -20 -12 0 12 #c6feff #000000 #000000 0 1;
#X obj 752 831 tgl 30 0 note8Toggle empty Note\ 8\ Toggle 0 -10 0 12 #c6feff #000000 #000000 0 1;
#X obj 1225 720 bng 19 250 50 0 empty empty empty 0 -10 0 12 #fcfcfc #000000 #000000;
#X obj 1222 675 loadbang;
#X msg 1196 777 44;
#X msg 1251 777 48;
#X msg 1331 778 52;
#X msg 1386 778 56;
#X msg 1462 777 60;
#X msg 1517 777 66;
#X obj 1196 817 s note3;
#X obj 1260 816 s note4;
#X obj 1331 818 s note5;
#X obj 1395 817 s note6;
#X obj 1462 817 s note7;
#X obj 1526 816 s note8;
#N canvas 128 68 1397 988 pno 0;
#X obj 90 216 r c;
#X msg 79 349 \; cx1 color \$1;
#X msg 101 320 2;
#X msg 147 319 10;
#X obj 141 277 del 100;
#X obj 195 142 del 100;
#X msg 133 214 \; cisx1 color \$1;
#X obj 144 81 r cis;
#X msg 201 184 12;
#X msg 155 185 10;
#X msg 272 326 2;
#X msg 318 325 10;
#X obj 312 283 del 100;
#X obj 360 144 del 100;
#X msg 366 186 12;
#X msg 320 187 10;
#X msg 51 291 1;
#X msg 105 156 2;
#X msg 222 297 3;
#X msg 270 158 4;
#X obj 261 222 r d;
#X msg 250 355 \; dx1 color \$1;
#X obj 309 83 r dis;
#X msg 298 216 \; disx1 color \$1;
#X msg 441 327 2;
#X msg 487 326 10;
#X obj 481 284 del 100;
#X obj 430 223 r e;
#X msg 419 356 \; ex1 color \$1;
#X msg 599 317 2;
#X msg 645 316 10;
#X obj 639 274 del 100;
#X obj 689 128 del 100;
#X msg 695 170 12;
#X msg 649 171 10;
#X msg 770 318 2;
#X msg 816 317 10;
#X obj 810 275 del 100;
#X obj 863 127 del 100;
#X msg 869 169 12;
#X msg 823 170 10;
#X msg 952 322 2;
#X msg 998 321 10;
#X obj 992 279 del 100;
#X obj 588 213 r f;
#X msg 577 346 \; fx1 color \$1;
#X obj 638 67 r fis;
#X msg 627 200 \; fisx1 color \$1;
#X msg 748 347 \; gx1 color \$1;
#X obj 759 214 r g;
#X obj 812 66 r gis;
#X msg 801 199 \; gisx1 color \$1;
#X msg 930 351 \; ax1 color \$1;
#X obj 941 218 r a;
#X obj 1044 123 del 100;
#X msg 1050 165 12;
#X msg 1004 166 10;
#X msg 1133 318 2;
#X msg 1179 317 10;
#X obj 1173 275 del 100;
#X obj 993 62 r ais;
#X msg 982 195 \; aisx1 color \$1;
#X msg 1111 348 \; hx1 color \$1;
#X obj 1122 214 r h;
#X msg 391 298 5;
#X msg 549 289 6;
#X msg 599 142 7;
#X msg 720 289 8;
#X msg 773 141 9;
#X msg 902 293 10;
#X msg 954 137 11;
#X msg 1083 289 12;
#X floatatom 788 588 5 0 0 0 - - - 0;
#X obj 672 544 bng 15 250 50 0 cis empty empty 0 -6 0 8 #fcfcfc #000000 #000000;
#X obj 672 559 bng 15 250 50 0 cis empty empty 0 -6 0 8 #fcfcfc #000000 #000000;
#X obj 689 544 bng 15 250 50 0 dis empty empty 0 -6 0 8 #fcfcfc #000000 #000000;
#X obj 689 559 bng 15 250 50 0 dis empty empty 0 -6 0 8 #fcfcfc #000000 #000000;
#X obj 664 575 bng 15 250 50 0 c empty empty 0 -6 0 8 #fcfcfc #000000 #000000;
#X obj 664 590 bng 15 250 50 0 c empty empty 0 -6 0 8 #fcfcfc #000000 #000000;
#X obj 681 575 bng 15 250 50 0 d empty empty 0 -6 0 8 #fcfcfc #000000 #000000;
#X obj 681 590 bng 15 250 50 0 d empty empty 0 -6 0 8 #fcfcfc #000000 #000000;
#X obj 698 575 bng 15 250 50 0 e empty empty 0 -6 0 8 #fcfcfc #000000 #000000;
#X obj 698 590 bng 15 250 50 0 e empty empty 0 -6 0 8 #fcfcfc #000000 #000000;
#X obj 715 575 bng 15 250 50 0 f empty empty 0 -6 0 8 #fcfcfc #000000 #000000;
#X obj 715 590 bng 15 250 50 0 f empty empty 0 -6 0 8 #fcfcfc #000000 #000000;
#X obj 723 544 bng 15 250 50 0 fis empty empty 0 -6 0 8 #fcfcfc #000000 #000000;
#X obj 723 559 bng 15 250 50 0 fis empty empty 0 -6 0 8 #fcfcfc #000000 #000000;
#X obj 740 544 bng 15 250 50 0 gis empty empty 0 -6 0 8 #fcfcfc #000000 #000000;
#X obj 740 559 bng 15 250 50 0 gis empty empty 0 -6 0 8 #fcfcfc #000000 #000000;
#X obj 732 575 bng 15 250 50 0 g empty empty 0 -6 0 8 #fcfcfc #000000 #000000;
#X obj 732 590 bng 15 250 50 0 g empty empty 0 -6 0 8 #fcfcfc #000000 #000000;
#X obj 757 544 bng 15 250 50 0 ais empty empty 0 -6 0 8 #fcfcfc #000000 #000000;
#X obj 757 559 bng 15 250 50 0 ais empty empty 0 -6 0 8 #fcfcfc #000000 #000000;
#X obj 749 575 bng 15 250 50 0 a empty empty 0 -6 0 8 #fcfcfc #000000 #000000;
#X obj 749 590 bng 15 250 50 0 a empty empty 0 -6 0 8 #fcfcfc #000000 #000000;
#X obj 766 575 bng 15 250 50 0 h empty empty 0 -6 0 8 #fcfcfc #000000 #000000;
#X obj 766 590 bng 15 250 50 0 h empty empty 0 -6 0 8 #fcfcfc #000000 #000000;
#X obj 664 590 tgl 15 0 c1 empty empty 0 -6 0 8 #fcfcfc #000000 #000000 0 1;
#X obj 664 574 tgl 15 0 c2 empty empty 0 -6 0 8 #fcfcfc #000000 #000000 0 1;
#X obj 681 590 tgl 15 0 d1 empty empty 0 -6 0 8 #fcfcfc #000000 #000000 0 1;
#X obj 681 574 tgl 15 0 d2 empty empty 0 -6 0 8 #fcfcfc #000000 #000000 0 1;
#X obj 698 590 tgl 15 0 e1 empty empty 0 -6 0 8 #fcfcfc #000000 #000000 0 1;
#X obj 698 574 tgl 15 0 e2 empty empty 0 -6 0 8 #fcfcfc #000000 #000000 0 1;
#X obj 715 590 tgl 15 0 f1 empty empty 0 -6 0 8 #fcfcfc #000000 #000000 0 1;
#X obj 715 574 tgl 15 0 f2 empty empty 0 -6 0 8 #fcfcfc #000000 #000000 0 1;
#X obj 732 590 tgl 15 0 g1 empty empty 0 -6 0 8 #fcfcfc #000000 #000000 0 1;
#X obj 732 574 tgl 15 0 g2 empty empty 0 -6 0 8 #fcfcfc #000000 #000000 0 1;
#X obj 749 590 tgl 15 0 a1 empty empty 0 -6 0 8 #fcfcfc #000000 #000000 0 1;
#X obj 749 574 tgl 15 0 a2 empty empty 0 -6 0 8 #fcfcfc #000000 #000000 0 1;
#X obj 766 590 tgl 15 0 h1 empty empty 0 -6 0 8 #fcfcfc #000000 #000000 0 1;
#X obj 766 574 tgl 15 0 h2 empty empty 0 -6 0 8 #fcfcfc #000000 #000000 0 1;
#X obj 664 574 cnv 15 15 31 empty cx1 empty 20 12 0 14 #e0e0e0 #fcfcfc 0;
#X obj 681 574 cnv 15 15 31 empty dx1 empty 20 12 0 14 #e0e0e0 #fcfcfc 0;
#X obj 698 574 cnv 15 15 31 empty ex1 empty 20 12 0 14 #e0e0e0 #fcfcfc 0;
#X obj 715 574 cnv 15 15 31 empty fx1 empty 20 12 0 14 #e0e0e0 #fcfcfc 0;
#X obj 732 574 cnv 15 15 31 empty gx1 empty 20 12 0 14 #e0e0e0 #fcfcfc 0;
#X obj 749 574 cnv 15 15 31 empty ax1 empty 20 12 0 14 #e0e0e0 #fcfcfc 0;
#X obj 766 574 cnv 15 15 31 empty hx1 empty 20 12 0 14 #e0e0e0 #fcfcfc 0;
#X obj 723 559 tgl 15 0 fis1 empty empty 0 -6 0 8 #fcfcfc #000000 #000000 0 1;
#X obj 723 543 tgl 15 0 fis2 empty empty 0 -6 0 8 #fcfcfc #000000 #000000 0 1;
#X obj 740 559 tgl 15 0 gis1 empty empty 0 -6 0 8 #fcfcfc #000000 #000000 0 1;
#X obj 740 543 tgl 15 0 gis2 empty empty 0 -6 0 8 #fcfcfc #000000 #000000 0 1;
#X obj 757 559 tgl 15 0 ais1 empty empty 0 -6 0 8 #fcfcfc #000000 #000000 0 1;
#X obj 757 543 tgl 15 0 ais2 empty empty 0 -6 0 8 #fcfcfc #000000 #000000 0 1;
#X obj 672 544 cnv 15 15 30 empty cisx1 empty 20 12 0 14 #202020 #fcfcfc 0;
#X obj 689 544 cnv 15 15 30 empty disx1 empty 20 12 0 14 #202020 #fcfcfc 0;
#X obj 723 544 cnv 15 15 30 empty fisx1 empty 20 12 0 14 #202020 #fcfcfc 0;
#X obj 740 543 cnv 15 15 30 empty gisx1 empty 20 12 0 14 #202020 #fcfcfc 0;
#X obj 757 543 cnv 15 15 30 empty aisx1 empty 20 12 0 14 #202020 #fcfcfc 0;
#X obj 788 649 send midiP;
#X text 671 701 www.pd-tutorial.com;
#X text 684 679 Johannes Kreidler;
#X text 14 7 5.2.2.3. piano display;
#X obj 788 556 + 59;
#X floatatom 790 525 5 0 0 0 - - - 0;
#X obj 1187 585 f;
#X obj 1233 585 +;
#X floatatom 1122 503 5 0 0 0 - - - 0;
#X obj 1167 481 bng 15 250 50 0 empty empty empty 17 7 0 10 #fcfcfc #000000 #000000;
#X obj 1220 479 bng 15 250 50 0 empty empty empty 17 7 0 10 #fcfcfc #000000 #000000;
#X obj 1167 502 t b b;
#X msg 1121 568 set \$1;
#X obj 1219 503 t b b;
#X msg 1212 550 12;
#X msg 1251 549 -12;
#X obj 1173 413 r octaveUp;
#X msg 1091 447 59;
#X obj 1087 412 r middleC;
#X obj 1275 414 r octaveDown;
#X connect 0 0 2 0;
#X connect 0 0 4 0;
#X connect 0 0 16 0;
#X connect 2 0 1 0;
#X connect 3 0 1 0;
#X connect 4 0 3 0;
#X connect 5 0 8 0;
#X connect 7 0 9 0;
#X connect 7 0 5 0;
#X connect 7 0 17 0;
#X connect 8 0 6 0;
#X connect 9 0 6 0;
#X connect 10 0 21 0;
#X connect 11 0 21 0;
#X connect 12 0 11 0;
#X connect 13 0 14 0;
#X connect 14 0 23 0;
#X connect 15 0 23 0;
#X connect 16 0 133 0;
#X connect 17 0 133 0;
#X connect 18 0 133 0;
#X connect 19 0 133 0;
#X connect 20 0 10 0;
#X connect 20 0 12 0;
#X connect 20 0 18 0;
#X connect 22 0 15 0;
#X connect 22 0 13 0;
#X connect 22 0 19 0;
#X connect 24 0 28 0;
#X connect 25 0 28 0;
#X connect 26 0 25 0;
#X connect 27 0 24 0;
#X connect 27 0 26 0;
#X connect 27 0 64 0;
#X connect 29 0 45 0;
#X connect 30 0 45 0;
#X connect 31 0 30 0;
#X connect 32 0 33 0;
#X connect 33 0 47 0;
#X connect 34 0 47 0;
#X connect 35 0 48 0;
#X connect 36 0 48 0;
#X connect 37 0 36 0;
#X connect 38 0 39 0;
#X connect 39 0 51 0;
#X connect 40 0 51 0;
#X connect 41 0 52 0;
#X connect 42 0 52 0;
#X connect 43 0 42 0;
#X connect 44 0 29 0;
#X connect 44 0 31 0;
#X connect 44 0 65 0;
#X connect 46 0 34 0;
#X connect 46 0 32 0;
#X connect 46 0 66 0;
#X connect 49 0 35 0;
#X connect 49 0 37 0;
#X connect 49 0 67 0;
#X connect 50 0 40 0;
#X connect 50 0 38 0;
#X connect 50 0 68 0;
#X connect 53 0 41 0;
#X connect 53 0 43 0;
#X connect 53 0 69 0;
#X connect 54 0 55 0;
#X connect 55 0 61 0;
#X connect 56 0 61 0;
#X connect 57 0 62 0;
#X connect 58 0 62 0;
#X connect 59 0 58 0;
#X connect 60 0 56 0;
#X connect 60 0 54 0;
#X connect 60 0 70 0;
#X connect 63 0 57 0;
#X connect 63 0 59 0;
#X connect 63 0 71 0;
#X connect 64 0 133 0;
#X connect 65 0 133 0;
#X connect 66 0 133 0;
#X connect 67 0 133 0;
#X connect 68 0 133 0;
#X connect 69 0 133 0;
#X connect 70 0 133 0;
#X connect 71 0 133 0;
#X connect 72 0 129 0;
#X connect 133 0 72 0;
#X connect 134 0 141 0;
#X connect 134 0 133 1;
#X connect 135 0 136 0;
#X connect 135 0 134 0;
#X connect 136 0 135 1;
#X connect 137 0 135 0;
#X connect 138 0 140 0;
#X connect 139 0 142 0;
#X connect 140 0 135 0;
#X connect 140 1 143 0;
#X connect 141 0 137 0;
#X connect 142 0 135 0;
#X connect 142 1 144 0;
#X connect 143 0 136 1;
#X connect 144 0 136 1;
#X connect 145 0 138 0;
#X connect 146 0 137 0;
#X connect 147 0 146 0;
#X connect 148 0 139 0;
#X coords 0 -1 1 1 180 90 1 655 520;
#X restore 1260 59 pd pno;
#N canvas -50 203 1920 997 keyInput 0;
#X floatatom 405 85 5 0 0 0 - - - 0;
#X obj 399 239 s c;
#X obj 434 239 s cis;
#X obj 484 239 s dis;
#X obj 530 239 s d;
#X obj 563 239 s e;
#X obj 595 239 s f;
#X obj 628 240 s fis;
#X obj 678 240 s gis;
#X obj 725 239 s ais;
#X obj 812 238 s a;
#X obj 858 241 s h;
#X obj 778 241 s g;
#X obj 991 241 s middleC;
#X obj 1093 239 s octaveDown;
#X obj 405 140 select 97 119 101 115 100 102 116 121 117 103 104 106 122 120 99;
#X obj 897 241 s octaveUp;
#X obj 404 30 key;
#X obj 371 412 s colorBang;
#X obj 371 367 bng 19 250 50 0 empty empty empty 0 -10 0 12 #fcfcfc #000000 #000000;
#X obj 787 351 bng 19 250 50 0 empty empty empty 0 -10 0 12 #fcfcfc #000000 #000000;
#X obj 787 396 s shrinkGrow;
#X obj 168 164 keyup;
#X connect 0 0 15 0;
#X connect 15 0 1 0;
#X connect 15 1 2 0;
#X connect 15 2 3 0;
#X connect 15 3 4 0;
#X connect 15 4 5 0;
#X connect 15 5 6 0;
#X connect 15 6 7 0;
#X connect 15 7 8 0;
#X connect 15 8 9 0;
#X connect 15 9 12 0;
#X connect 15 10 10 0;
#X connect 15 11 11 0;
#X connect 15 12 16 0;
#X connect 15 13 13 0;
#X connect 15 13 20 0;
#X connect 15 14 14 0;
#X connect 17 0 0 0;
#X connect 19 0 18 0;
#X connect 20 0 21 0;
#X connect 22 0 19 0;
#X restore 1457 111 pd keyInput;
#X text 1208 9 Linked to Keyboard \, a-j white keys \, w-u blacks \, z = octave up x = middlec c = octave down, f 61;
#X msg 928 778 \; startToggle 1 \; randoStart 0 \; startVol 0.05 \;;
#X obj 1254 189 hradio 19 1 0 8 empty empty empty 0 -10 0 12 #fcfcfc #000000 #000000 0;
#X obj 1144 520 s note1;
#X obj 1153 426 change;
#X floatatom 1317 274 5 0 0 0 - midiP - 0;
#X msg 1315 301 set \$1;
#X floatatom 1143 465 5 0 0 0 - - - 0;
#X obj 1231 432 change;
#X floatatom 1229 467 5 0 0 0 - - - 0;
#X obj 1230 521 s note2;
#X obj 1301 432 change;
#X floatatom 1299 467 5 0 0 0 - - - 0;
#X obj 1370 430 change;
#X floatatom 1368 465 5 0 0 0 - - - 0;
#X obj 1446 430 change;
#X floatatom 1444 465 5 0 0 0 - - - 0;
#X obj 1514 429 change;
#X floatatom 1512 464 5 0 0 0 - - - 0;
#X obj 1300 522 s note3;
#X obj 1369 520 s note4;
#X obj 1445 520 s note5;
#X obj 1513 519 s note6;
#X obj 1585 429 change;
#X floatatom 1583 464 5 0 0 0 - - - 0;
#X obj 1655 430 change;
#X floatatom 1653 465 5 0 0 0 - - - 0;
#X obj 1584 519 s note7;
#X obj 1654 520 s note8;
#X obj 1256 239 sel 0 1 2 3 4 5 6 7;
#X text 1169 162 Set the Values of the Notes Using Piano and HSlider;
#X connect 1 0 2 0;
#X connect 4 0 19 0;
#X connect 5 0 6 0;
#X connect 6 0 7 0;
#X connect 7 0 8 0;
#X connect 9 0 10 0;
#X connect 9 0 10 1;
#X connect 9 0 11 0;
#X connect 11 0 12 0;
#X connect 13 0 14 0;
#X connect 14 0 15 0;
#X connect 15 0 16 0;
#X connect 17 0 5 0;
#X connect 19 0 5 0;
#X connect 22 0 23 0;
#X connect 54 0 1 0;
#X connect 54 0 22 0;
#X connect 54 0 56 0;
#X connect 54 0 57 0;
#X connect 54 0 58 0;
#X connect 54 0 59 0;
#X connect 54 0 60 0;
#X connect 54 0 61 0;
#X connect 54 0 71 0;
#X connect 55 0 54 0;
#X connect 56 0 62 0;
#X connect 57 0 63 0;
#X connect 58 0 64 0;
#X connect 59 0 65 0;
#X connect 60 0 66 0;
#X connect 61 0 67 0;
#X connect 72 0 99 0;
#X connect 74 0 77 0;
#X connect 75 0 76 0;
#X connect 76 0 74 0;
#X connect 76 0 78 0;
#X connect 76 0 81 0;
#X connect 76 0 83 0;
#X connect 76 0 85 0;
#X connect 76 0 87 0;
#X connect 76 0 93 0;
#X connect 76 0 95 0;
#X connect 77 0 73 0;
#X connect 78 0 79 0;
#X connect 79 0 80 0;
#X connect 81 0 82 0;
#X connect 82 0 89 0;
#X connect 83 0 84 0;
#X connect 84 0 90 0;
#X connect 85 0 86 0;
#X connect 86 0 91 0;
#X connect 87 0 88 0;
#X connect 88 0 92 0;
#X connect 93 0 94 0;
#X connect 94 0 97 0;
#X connect 95 0 96 0;
#X connect 96 0 98 0;
#X connect 99 0 77 0;
#X connect 99 1 78 0;
#X connect 99 2 81 0;
#X connect 99 3 83 0;
#X connect 99 4 85 0;
#X connect 99 5 87 0;
#X connect 99 6 93 0;
#X connect 99 7 95 0;
