#N canvas 142 -16 1920 997 12;
#X floatatom 88 156 5 0 0 0 - - - 0;
#X obj 91 112 hsl 200 25 0 2000 0 0 empty empty SampleSpeed -2 -10 0 12 #9c00ff #000000 #000000 0 1;
#X msg 87 65 0;
#X obj 87 36 bng 19 250 50 0 empty empty STOP 0 -10 0 12 #ff0400 #000000 #000000;
#N canvas -134 159 1920 1041 playSound 0;
#X msg 182 108 start;
#X msg 302 147 stop;
#X obj 53 312 dac~;
#X obj 53 269 *~ 0.7;
#X obj 58 189 readsf~ 2;
#X obj 110 269 *~ 0.7;
#X obj 95 -2 inlet;
#X obj 95 35 t b b;
#X obj 302 105 inlet;
#X obj 215 199 outlet;
#X obj 54 55 bng 19 250 50 0 empty empty empty 0 -10 0 12 #fcfcfc #000000 #000000;
#X obj 244 62 bng 19 250 50 0 empty empty empty 0 -10 0 12 #fcfcfc #000000 #000000;
#X obj 180 27 delay 0.1;
#X obj 191 231 r sampleVolume;
#X msg 58 85 open bells.wav;
#X connect 0 0 4 0;
#X connect 1 0 4 0;
#X connect 3 0 2 0;
#X connect 4 0 3 0;
#X connect 4 1 5 0;
#X connect 4 2 9 0;
#X connect 5 0 2 1;
#X connect 6 0 7 0;
#X connect 7 0 10 0;
#X connect 7 1 12 0;
#X connect 8 0 1 0;
#X connect 10 0 14 0;
#X connect 11 0 0 0;
#X connect 12 0 11 0;
#X connect 13 0 5 1;
#X connect 13 0 3 1;
#X connect 14 0 4 0;
#X restore 206 205 pd playSound;
#X obj 206 162 bng 19 250 50 0 spinON empty PlayOnce 0 -10 0 12 #00ff04 #000000 #000000;
#X obj 287 165 bng 19 250 50 0 empty empty STOP 0 -10 0 12 #ff0400 #000000 #000000;
#X obj 650 111 hsl 200 25 0 1 0 0 empty empty BellSampleVolume -2 -10 0 12 #00ff04 #000000 #000000 0 1;
#X floatatom 647 161 4 0 0 0 - - - 0;
#X obj 647 194 s sampleVolume;
#X obj 33 35 bng 19 250 50 0 empty empty Start 0 -10 0 12 #00ff04 #000000 #000000;
#X floatatom 369 155 5 0 0 0 - - - 0;
#X obj 372 109 hsl 200 25 256 1028 0 0 empty empty SampleWindow -2 -10 0 12 #ff8300 #000000 #000000 0 1;
#X obj 368 35 bng 19 250 50 0 empty empty Reset 0 -10 0 12 #faff00 #000000 #000000;
#X msg 368 64 256;
#X floatatom 87 428 5 0 0 0 - - - 0;
#X obj 90 384 hsl 200 25 0 2000 0 0 empty empty Dream\ Vocal\ Speed -2 -10 0 12 #9c00ff #000000 #000000 0 1;
#X msg 86 337 0;
#X obj 86 308 bng 19 250 50 0 empty empty STOP 0 -10 0 12 #ff0400 #000000 #000000;
#X obj 224 434 bng 19 250 50 0 spinON empty PlayOnce 0 -10 0 12 #00ff04 #000000 #000000;
#X obj 374 419 bng 19 250 50 0 empty empty STOP 0 -10 0 12 #ff0400 #000000 #000000;
#X obj 32 307 bng 19 250 50 0 empty empty Start 0 -10 0 12 #00ff04 #000000 #000000;
#X floatatom 425 427 5 0 0 0 - - - 0;
#X obj 428 381 hsl 200 25 256 1028 0 0 empty empty Dream\ Vocal\ SampleWindow -2 -10 0 12 #ff8300 #000000 #000000 0 1;
#X obj 424 307 bng 19 250 50 0 empty empty Reset 0 -10 0 12 #faff00 #000000 #000000;
#X msg 424 336 256;
#X obj 702 380 hsl 200 25 0 1 0 0 empty empty Dream\ Vocal\ SampleVolume -2 -10 0 12 #00ff04 #000000 #000000 0 1;
#X floatatom 701 431 4 0 0 0 - - - 0;
#X text 551 42 Bell Sound Controls;
#X obj 88 198 s speedBell;
#X obj 368 198 s windowBell;
#X text 605 320 Dream Vocal Sound Controls;
#X obj 424 470 s windowDreamVocal;
#N canvas -117 110 1920 1041 playSoundDreamVocal 0;
#X msg 182 108 start;
#X msg 302 147 stop;
#X obj 53 312 dac~;
#X obj 53 269 *~ 0.7;
#X obj 58 189 readsf~ 2;
#X obj 110 269 *~ 0.7;
#X obj 95 -2 inlet;
#X obj 95 35 t b b;
#X obj 302 105 inlet;
#X obj 215 199 outlet;
#X obj 54 55 bng 19 250 50 0 empty empty empty 0 -10 0 12 #fcfcfc #000000 #000000;
#X obj 244 62 bng 19 250 50 0 empty empty empty 0 -10 0 12 #fcfcfc #000000 #000000;
#X obj 180 27 delay 0.1;
#X msg 58 85 open dreamVocal.wav;
#X obj 191 230 r sampleDreamVocalVolume;
#X connect 0 0 4 0;
#X connect 1 0 4 0;
#X connect 3 0 2 0;
#X connect 4 0 3 0;
#X connect 4 1 5 0;
#X connect 4 2 9 0;
#X connect 5 0 2 1;
#X connect 6 0 7 0;
#X connect 7 0 10 0;
#X connect 7 1 12 0;
#X connect 8 0 1 0;
#X connect 10 0 13 0;
#X connect 11 0 0 0;
#X connect 12 0 11 0;
#X connect 13 0 4 0;
#X connect 14 0 5 1;
#X connect 14 0 3 1;
#X restore 224 469 pd playSoundDreamVocal;
#X obj 87 470 s speedDreamVocal;
#N canvas 71 -17 1920 997 granularSampleDreamVocal 0;
#N canvas 0 0 450 300 (subpatch) 0;
#X array arrayDreamVocal 78498 float 2;
#X coords 0 1 78498 -1 200 140 1 0 0;
#X restore 292 28 graph;
#X obj 290 220 soundfiler;
#X floatatom 290 246 5 0 0 0 - - - 0;
#X obj 290 272 expr 44100 / $f1;
#X obj 290 329 *~;
#X obj 290 303 phasor~;
#X obj 47 370 phasor~;
#X floatatom 47 345 5 0 0 0 - - - 0;
#X obj 46 512 *~ 256;
#X obj 290 507 samphold~;
#X obj 47 593 +~;
#X obj 48 823 dac~;
#X obj 233 628 tabread~ hanning;
#X obj 48 695 *~;
#X obj 385 508 *~ 256;
#X obj 627 515 samphold~;
#X obj 386 589 +~;
#X obj 584 626 tabread~ hanning;
#X obj 387 691 *~;
#X obj 385 457 wrap~;
#X obj 385 429 +~ 0.5;
#X obj 48 791 *~ 0.6;
#X text 647 195 load sound file;
#X text 343 247 size of sound file;
#X text 356 303 runs at original speed;
#X text 104 502 window \, here 256;
#X text 103 519 samples in size;
#X text 448 436 phase shift;
#X text 445 500 window \, here 256;
#X text 444 517 samples in size;
#X text 543 778 www.pd-tutorial.com;
#X text 561 748 Johannes Kreidler;
#X obj 720 75 inlet;
#X floatatom 162 326 5 0 0 0 - - - 0;
#X obj 720 129 t b;
#X msg 290 190 read -resize dreamVocal.wav arrayDreamVocal;
#X obj 165 252 r windowDreamVocal;
#X obj 49 283 r speedDreamVocal;
#X obj 388 624 tabread4~ arrayDreamVocal;
#X obj 47 628 tabread4~ arrayDreamVocal;
#X obj 166 775 r sampleDreamVocalVolume;
#X connect 1 0 2 0;
#X connect 2 0 3 0;
#X connect 2 0 4 1;
#X connect 3 0 5 0;
#X connect 4 0 9 0;
#X connect 4 0 15 0;
#X connect 5 0 4 0;
#X connect 6 0 8 0;
#X connect 6 0 9 1;
#X connect 6 0 20 0;
#X connect 7 0 6 0;
#X connect 8 0 10 0;
#X connect 8 0 12 0;
#X connect 9 0 10 1;
#X connect 10 0 39 0;
#X connect 12 0 13 1;
#X connect 13 0 21 0;
#X connect 14 0 16 0;
#X connect 14 0 17 0;
#X connect 15 0 16 1;
#X connect 16 0 38 0;
#X connect 17 0 18 1;
#X connect 18 0 21 0;
#X connect 19 0 14 0;
#X connect 19 0 15 1;
#X connect 20 0 19 0;
#X connect 21 0 11 0;
#X connect 21 0 11 1;
#X connect 32 0 34 0;
#X connect 33 0 8 1;
#X connect 33 0 14 1;
#X connect 34 0 35 0;
#X connect 35 0 1 0;
#X connect 36 0 33 0;
#X connect 37 0 7 0;
#X connect 38 0 18 0;
#X connect 39 0 13 0;
#X connect 40 0 21 1;
#X restore 35 505 pd granularSampleDreamVocal;
#N canvas 269 -15 1920 997 granularSampleBell 0;
#N canvas 0 0 450 300 (subpatch) 0;
#X array arrayBell 275625 float 2;
#X coords 0 1 275625 -1 200 140 1 0 0;
#X restore 292 29 graph;
#X obj 290 220 soundfiler;
#X floatatom 290 246 5 0 0 0 - - - 0;
#X obj 290 272 expr 44100 / $f1;
#X obj 290 329 *~;
#X obj 290 303 phasor~;
#X obj 47 370 phasor~;
#X floatatom 47 345 5 0 0 0 - - - 0;
#X obj 46 512 *~ 256;
#X obj 290 507 samphold~;
#X obj 47 593 +~;
#X obj 48 823 dac~;
#N canvas 0 0 450 300 (subpatch) 0;
#X array hanning 256 float 1;
#A 0 0 0.000150591 0.000602275 0.00135478 0.00240764 0.00376022 0.00541174 0.00736117 0.00960734 0.0121489 0.0149843 0.0181119 0.0215298 0.0252359 0.0292279 0.0335035 0.0380601 0.042895 0.0480052 0.0533877 0.0590392 0.0649563 0.0711355 0.077573 0.084265 0.0912073 0.0983959 0.105826 0.113494 0.121395 0.129524 0.137876 0.146446 0.155229 0.16422 0.173413 0.182803 0.192384 0.20215 0.212095 0.222214 0.2325 0.242948 0.25355 0.264301 0.275194 0.286222 0.297379 0.308658 0.320052 0.331555 0.343159 0.354857 0.366643 0.378509 0.390449 0.402454 0.414519 0.426634 0.438794 0.450991 0.463218 0.475466 0.487729 0.5 0.512271 0.524534 0.536782 0.549009 0.561205 0.573365 0.585481 0.597545 0.609551 0.62149 0.633357 0.645143 0.656841 0.668445 0.679948 0.691342 0.702621 0.713778 0.724806 0.735699 0.74645 0.757052 0.767499 0.777786 0.787905 0.79785 0.807616 0.817197 0.826587 0.83578 0.844771 0.853554 0.862124 0.870476 0.878605 0.886506 0.894174 0.901605 0.908793 0.915736 0.922428 0.928865 0.935044 0.940961 0.946613 0.951995 0.957106 0.96194 0.966497 0.970773 0.974765 0.978471 0.981889 0.985016 0.987852 0.990393 0.992639 0.994589 0.99624 0.997593 0.998645 0.999398 0.999849 1 0.999849 0.999398 0.998645 0.997592 0.996239 0.994588 0.992638 0.990392 0.987851 0.985015 0.981887 0.978469 0.974763 0.970771 0.966495 0.961939 0.957104 0.951993 0.946611 0.940959 0.935042 0.928863 0.922425 0.915733 0.908791 0.901602 0.894171 0.886503 0.878602 0.870473 0.862121 0.853551 0.844768 0.835777 0.826584 0.817194 0.807613 0.797847 0.787901 0.777782 0.767496 0.757048 0.746446 0.735695 0.724802 0.713774 0.702617 0.691338 0.679944 0.668441 0.656837 0.645139 0.633353 0.621486 0.609547 0.597541 0.585477 0.573361 0.561201 0.549004 0.536778 0.52453 0.512266 0.499996 0.487725 0.475462 0.463213 0.450987 0.43879 0.42663 0.414515 0.40245 0.390445 0.378505 0.366639 0.354853 0.343155 0.331551 0.320048 0.308654 0.297375 0.286218 0.27519 0.264297 0.253547 0.242944 0.232497 0.222211 0.212092 0.202146 0.19238 0.182799 0.17341 0.164217 0.155226 0.146443 0.137873 0.129521 0.121392 0.113491 0.105823 0.0983929 0.0912044 0.0842621 0.0775702 0.0711328 0.0649537 0.0590367 0.0533853 0.0480029 0.0428928 0.038058 0.0335015 0.029226 0.025234 0.0215281 0.0181104 0.0149829 0.0121476 0.00960615 0.0073601 0.00541082 0.00375944 0.00240701 0.00135431 0.000601947 0.000150442;
#X coords 0 1 256 0 40 30 1;
#X restore 850 526 graph;
#X text 835 543 0;
#X text 835 520 1;
#X text 838 559 0;
#X text 874 559 256;
#X obj 204 629 tabread~ hanning;
#X obj 48 695 *~;
#X obj 385 508 *~ 256;
#X obj 627 515 samphold~;
#X obj 386 589 +~;
#X obj 543 625 tabread~ hanning;
#X obj 387 691 *~;
#X obj 385 457 wrap~;
#X obj 385 429 +~ 0.5;
#X obj 48 791 *~ 0.6;
#X text 537 193 load sound file;
#X text 343 247 size of sound file;
#X text 356 303 runs at original speed;
#X text 104 502 window \, here 256;
#X text 103 519 samples in size;
#X text 448 436 phase shift;
#X text 445 500 window \, here 256;
#X text 444 517 samples in size;
#X obj 166 775 r sampleVolume;
#X obj 720 75 inlet;
#X obj 720 129 t b;
#X floatatom 162 326 5 0 0 0 - - - 0;
#X obj 165 252 r windowBell;
#X obj 49 283 r speedBell;
#X obj 388 624 tabread4~ arrayBell;
#X obj 47 628 tabread4~ arrayBell;
#X msg 291 190 read -resize bells.wav arrayBell;
#X connect 1 0 2 0;
#X connect 2 0 3 0;
#X connect 2 0 4 1;
#X connect 3 0 5 0;
#X connect 4 0 9 0;
#X connect 4 0 20 0;
#X connect 5 0 4 0;
#X connect 6 0 8 0;
#X connect 6 0 9 1;
#X connect 6 0 25 0;
#X connect 7 0 6 0;
#X connect 8 0 10 0;
#X connect 8 0 17 0;
#X connect 9 0 10 1;
#X connect 10 0 42 0;
#X connect 17 0 18 1;
#X connect 18 0 26 0;
#X connect 19 0 21 0;
#X connect 19 0 22 0;
#X connect 20 0 21 1;
#X connect 21 0 41 0;
#X connect 22 0 23 1;
#X connect 23 0 26 0;
#X connect 24 0 19 0;
#X connect 24 0 20 1;
#X connect 25 0 24 0;
#X connect 26 0 11 0;
#X connect 26 0 11 1;
#X connect 35 0 26 1;
#X connect 36 0 37 0;
#X connect 37 0 43 0;
#X connect 38 0 8 1;
#X connect 38 0 19 1;
#X connect 39 0 38 0;
#X connect 40 0 7 0;
#X connect 41 0 23 0;
#X connect 42 0 18 0;
#X connect 43 0 1 0;
#X restore 36 234 pd granularSampleBell;
#X obj 701 464 s sampleDreamVocalVolume;
#X floatatom 93 703 5 0 0 0 - - - 0;
#X obj 96 659 hsl 200 25 0 2000 0 0 empty empty Fish\ Synth\ Speed -2 -10 0 12 #9c00ff #000000 #000000 0 1;
#X msg 92 612 0;
#X obj 92 583 bng 19 250 50 0 empty empty STOP 0 -10 0 12 #ff0400 #000000 #000000;
#X obj 230 709 bng 19 250 50 0 spinON empty PlayOnce 0 -10 0 12 #00ff04 #000000 #000000;
#X obj 380 694 bng 19 250 50 0 empty empty STOP 0 -10 0 12 #ff0400 #000000 #000000;
#X obj 38 582 bng 19 250 50 0 empty empty Start 0 -10 0 12 #00ff04 #000000 #000000;
#X floatatom 431 702 5 0 0 0 - - - 0;
#X obj 434 656 hsl 200 25 256 1028 0 0 empty empty Fish\ Synth\ SampleWindow -2 -10 0 12 #ff8300 #000000 #000000 0 1;
#X obj 430 582 bng 19 250 50 0 empty empty Reset 0 -10 0 12 #faff00 #000000 #000000;
#X msg 430 611 256;
#X obj 708 655 hsl 200 25 0 1 0 0 empty empty Fish\ Synth\ SampleVolume -2 -10 0 12 #00ff04 #000000 #000000 0 1;
#X floatatom 707 706 4 0 0 0 - - - 0;
#X text 611 595 Fish Synth Sound Controls;
#X obj 707 739 s sampleFishSynthVolume;
#X obj 430 745 s windowFishSynth;
#N canvas -212 79 1920 1041 playSoundFishSynth 0;
#X msg 182 108 start;
#X msg 302 147 stop;
#X obj 53 312 dac~;
#X obj 53 269 *~ 0.7;
#X obj 58 189 readsf~ 2;
#X obj 110 269 *~ 0.7;
#X obj 95 -2 inlet;
#X obj 95 35 t b b;
#X obj 302 105 inlet;
#X obj 215 199 outlet;
#X obj 54 55 bng 19 250 50 0 empty empty empty 0 -10 0 12 #fcfcfc #000000 #000000;
#X obj 244 62 bng 19 250 50 0 empty empty empty 0 -10 0 12 #fcfcfc #000000 #000000;
#X obj 180 27 delay 0.1;
#X msg 58 85 open fishSynth.wav;
#X obj 191 230 r sampleFishSynthVolume;
#X connect 0 0 4 0;
#X connect 1 0 4 0;
#X connect 3 0 2 0;
#X connect 4 0 3 0;
#X connect 4 1 5 0;
#X connect 4 2 9 0;
#X connect 5 0 2 1;
#X connect 6 0 7 0;
#X connect 7 0 10 0;
#X connect 7 1 12 0;
#X connect 8 0 1 0;
#X connect 10 0 13 0;
#X connect 11 0 0 0;
#X connect 12 0 11 0;
#X connect 13 0 4 0;
#X connect 14 0 5 1;
#X connect 14 0 3 1;
#X restore 230 744 pd playSoundFishSynth;
#X obj 93 745 s speedFishSynth;
#N canvas 170 -10 1920 997 granularSampleFishSynth 0;
#N canvas 0 0 450 300 (subpatch) 0;
#X array arrayFishSynth 399360 float 2;
#X coords 0 1 399360 -1 200 140 1 0 0;
#X restore 292 28 graph;
#X obj 290 220 soundfiler;
#X floatatom 290 246 5 0 0 0 - - - 0;
#X obj 290 272 expr 44100 / $f1;
#X obj 290 329 *~;
#X obj 290 303 phasor~;
#X obj 47 370 phasor~;
#X floatatom 47 345 5 0 0 0 - - - 0;
#X obj 46 512 *~ 256;
#X obj 290 507 samphold~;
#X obj 47 593 +~;
#X obj 48 823 dac~;
#X obj 233 628 tabread~ hanning;
#X obj 48 695 *~;
#X obj 385 508 *~ 256;
#X obj 627 515 samphold~;
#X obj 386 589 +~;
#X obj 584 626 tabread~ hanning;
#X obj 387 691 *~;
#X obj 385 457 wrap~;
#X obj 385 429 +~ 0.5;
#X obj 48 791 *~ 0.6;
#X text 647 195 load sound file;
#X text 343 247 size of sound file;
#X text 356 303 runs at original speed;
#X text 104 502 window \, here 256;
#X text 103 519 samples in size;
#X text 448 436 phase shift;
#X text 445 500 window \, here 256;
#X text 444 517 samples in size;
#X obj 720 75 inlet;
#X floatatom 162 326 5 0 0 0 - - - 0;
#X obj 720 129 t b;
#X msg 289 190 read -resize fishSynth.wav arrayFishSynth;
#X obj 165 252 r windowFishSynth;
#X obj 49 283 r speedFishSynth;
#X obj 388 624 tabread4~ arrayFishSynth;
#X obj 48 628 tabread4~ arrayFishSynth;
#X obj 166 775 r sampleFishSynthVolume;
#X connect 1 0 2 0;
#X connect 2 0 3 0;
#X connect 2 0 4 1;
#X connect 3 0 5 0;
#X connect 4 0 9 0;
#X connect 4 0 15 0;
#X connect 5 0 4 0;
#X connect 6 0 8 0;
#X connect 6 0 9 1;
#X connect 6 0 20 0;
#X connect 7 0 6 0;
#X connect 8 0 10 0;
#X connect 8 0 12 0;
#X connect 9 0 10 1;
#X connect 10 0 37 0;
#X connect 12 0 13 1;
#X connect 13 0 21 0;
#X connect 14 0 16 0;
#X connect 14 0 17 0;
#X connect 15 0 16 1;
#X connect 16 0 36 0;
#X connect 17 0 18 1;
#X connect 18 0 21 0;
#X connect 19 0 14 0;
#X connect 19 0 15 1;
#X connect 20 0 19 0;
#X connect 21 0 11 0;
#X connect 21 0 11 1;
#X connect 30 0 32 0;
#X connect 31 0 8 1;
#X connect 31 0 14 1;
#X connect 32 0 33 0;
#X connect 33 0 1 0;
#X connect 34 0 31 0;
#X connect 35 0 7 0;
#X connect 36 0 18 0;
#X connect 37 0 13 0;
#X connect 38 0 21 1;
#X restore 41 780 pd granularSampleFishSynth;
#X floatatom 1061 154 5 0 0 0 - - - 0;
#X obj 1064 110 hsl 200 25 0 2000 0 0 empty empty Meditate\ Speed -2 -10 0 12 #9c00ff #000000 #000000 0 1;
#X msg 1060 63 0;
#X obj 1060 34 bng 19 250 50 0 empty empty STOP 0 -10 0 12 #ff0400 #000000 #000000;
#X obj 1198 160 bng 19 250 50 0 spinON empty PlayOnce 0 -10 0 12 #00ff04 #000000 #000000;
#X obj 1348 145 bng 19 250 50 0 empty empty STOP 0 -10 0 12 #ff0400 #000000 #000000;
#X obj 1006 33 bng 19 250 50 0 empty empty Start 0 -10 0 12 #00ff04 #000000 #000000;
#X floatatom 1399 153 5 0 0 0 - - - 0;
#X obj 1402 107 hsl 200 25 256 1028 0 0 empty empty Meditate\ SampleWindow -2 -10 0 12 #ff8300 #000000 #000000 0 1;
#X obj 1398 33 bng 19 250 50 0 empty empty Reset 0 -10 0 12 #faff00 #000000 #000000;
#X msg 1398 62 256;
#X obj 1676 106 hsl 200 25 0 1 0 0 empty empty Medidate\ SampleVolume -2 -10 0 12 #00ff04 #000000 #000000 0 1;
#X floatatom 1675 157 4 0 0 0 - - - 0;
#X floatatom 1067 437 5 0 0 0 - - - 0;
#X obj 1070 393 hsl 200 25 0 2000 0 0 empty empty Sernice\ Speed -2 -10 0 12 #9c00ff #000000 #000000 0 1;
#X msg 1066 346 0;
#X obj 1066 317 bng 19 250 50 0 empty empty STOP 0 -10 0 12 #ff0400 #000000 #000000;
#X obj 1204 443 bng 19 250 50 0 spinON empty PlayOnce 0 -10 0 12 #00ff04 #000000 #000000;
#X obj 1354 428 bng 19 250 50 0 empty empty STOP 0 -10 0 12 #ff0400 #000000 #000000;
#X obj 1012 316 bng 19 250 50 0 empty empty Start 0 -10 0 12 #00ff04 #000000 #000000;
#X floatatom 1405 436 5 0 0 0 - - - 0;
#X obj 1408 390 hsl 200 25 256 1028 0 0 empty empty Sernice\ SampleWindow -2 -10 0 12 #ff8300 #000000 #000000 0 1;
#X obj 1404 316 bng 19 250 50 0 empty empty Reset 0 -10 0 12 #faff00 #000000 #000000;
#X msg 1404 345 256;
#X obj 1682 389 hsl 200 25 0 1 0 0 empty empty Sernice\ SampleVolume -2 -10 0 12 #00ff04 #000000 #000000 0 1;
#X floatatom 1681 440 4 0 0 0 - - - 0;
#X text 1585 329 Fish Synth Sound Controls;
#X text 1579 47 Meditate Sound Controls;
#X obj 1675 190 s sampleMeditateVolume;
#X obj 1398 196 s windowMeditate;
#N canvas 159 -17 1920 997 playSoundMeditate 0;
#X msg 182 108 start;
#X msg 302 147 stop;
#X obj 53 312 dac~;
#X obj 53 269 *~ 0.7;
#X obj 58 189 readsf~ 2;
#X obj 110 269 *~ 0.7;
#X obj 95 -2 inlet;
#X obj 95 35 t b b;
#X obj 302 105 inlet;
#X obj 215 199 outlet;
#X obj 54 55 bng 19 250 50 0 empty empty empty 0 -10 0 12 #fcfcfc #000000 #000000;
#X obj 244 62 bng 19 250 50 0 empty empty empty 0 -10 0 12 #fcfcfc #000000 #000000;
#X obj 180 27 delay 0.1;
#X msg 58 85 open meditate.wav;
#X obj 193 230 r sampleMeditateVolume;
#X connect 0 0 4 0;
#X connect 1 0 4 0;
#X connect 3 0 2 0;
#X connect 4 0 3 0;
#X connect 4 1 5 0;
#X connect 4 2 9 0;
#X connect 5 0 2 1;
#X connect 6 0 7 0;
#X connect 7 0 10 0;
#X connect 7 1 12 0;
#X connect 8 0 1 0;
#X connect 10 0 13 0;
#X connect 11 0 0 0;
#X connect 12 0 11 0;
#X connect 13 0 4 0;
#X connect 14 0 5 1;
#X connect 14 0 3 1;
#X restore 1198 194 pd playSoundMeditate;
#N canvas 196 -19 1920 997 granularSampleMeditate 0;
#N canvas 0 0 450 300 (subpatch) 0;
#X array arrayMeditate 196245 float 2;
#X coords 0 1 196245 -1 200 140 1 0 0;
#X restore 292 28 graph;
#X obj 290 220 soundfiler;
#X floatatom 290 246 5 0 0 0 - - - 0;
#X obj 290 272 expr 44100 / $f1;
#X obj 290 329 *~;
#X obj 290 303 phasor~;
#X obj 47 370 phasor~;
#X floatatom 47 345 5 0 0 0 - - - 0;
#X obj 46 512 *~ 256;
#X obj 290 507 samphold~;
#X obj 47 593 +~;
#X obj 48 823 dac~;
#X obj 233 628 tabread~ hanning;
#X obj 48 695 *~;
#X obj 385 508 *~ 256;
#X obj 627 515 samphold~;
#X obj 386 589 +~;
#X obj 584 626 tabread~ hanning;
#X obj 387 691 *~;
#X obj 385 457 wrap~;
#X obj 385 429 +~ 0.5;
#X obj 48 791 *~ 0.6;
#X text 647 195 load sound file;
#X text 343 247 size of sound file;
#X text 356 303 runs at original speed;
#X text 104 502 window \, here 256;
#X text 103 519 samples in size;
#X text 448 436 phase shift;
#X text 445 500 window \, here 256;
#X text 444 517 samples in size;
#X obj 720 75 inlet;
#X floatatom 162 326 5 0 0 0 - - - 0;
#X obj 720 129 t b;
#X msg 289 190 read -resize meditate.wav arrayMeditate;
#X obj 165 252 r windowMeditate;
#X obj 49 283 r speedMeditate;
#X obj 48 628 tabread4~ arrayMeditate;
#X obj 388 624 tabread4~ arrayMeditate;
#X obj 166 775 r sampleFishMeditate;
#X connect 1 0 2 0;
#X connect 2 0 3 0;
#X connect 2 0 4 1;
#X connect 3 0 5 0;
#X connect 4 0 9 0;
#X connect 4 0 15 0;
#X connect 5 0 4 0;
#X connect 6 0 8 0;
#X connect 6 0 9 1;
#X connect 6 0 20 0;
#X connect 7 0 6 0;
#X connect 8 0 10 0;
#X connect 8 0 12 0;
#X connect 9 0 10 1;
#X connect 10 0 36 0;
#X connect 12 0 13 1;
#X connect 13 0 21 0;
#X connect 14 0 16 0;
#X connect 14 0 17 0;
#X connect 15 0 16 1;
#X connect 16 0 37 0;
#X connect 17 0 18 1;
#X connect 18 0 21 0;
#X connect 19 0 14 0;
#X connect 19 0 15 1;
#X connect 20 0 19 0;
#X connect 21 0 11 0;
#X connect 21 0 11 1;
#X connect 30 0 32 0;
#X connect 31 0 8 1;
#X connect 31 0 14 1;
#X connect 32 0 33 0;
#X connect 33 0 1 0;
#X connect 34 0 31 0;
#X connect 35 0 7 0;
#X connect 36 0 13 0;
#X connect 37 0 18 0;
#X connect 38 0 21 1;
#X restore 1009 231 pd granularSampleMeditate;
#X obj 1061 196 s speedMeditate;
#X obj 1680 473 s sampleSerniceVolume;
#X obj 1404 479 s windowSernice;
#N canvas 100 -17 1920 997 playSoundSernice 0;
#X msg 182 108 start;
#X msg 302 147 stop;
#X obj 53 312 dac~;
#X obj 53 269 *~ 0.7;
#X obj 58 189 readsf~ 2;
#X obj 110 269 *~ 0.7;
#X obj 95 -2 inlet;
#X obj 95 35 t b b;
#X obj 302 105 inlet;
#X obj 215 199 outlet;
#X obj 54 55 bng 19 250 50 0 empty empty empty 0 -10 0 12 #fcfcfc #000000 #000000;
#X obj 244 62 bng 19 250 50 0 empty empty empty 0 -10 0 12 #fcfcfc #000000 #000000;
#X obj 180 27 delay 0.1;
#X msg 58 85 open sernice.wav;
#X obj 190 230 r sampleSerniceVolume;
#X connect 0 0 4 0;
#X connect 1 0 4 0;
#X connect 3 0 2 0;
#X connect 4 0 3 0;
#X connect 4 1 5 0;
#X connect 4 2 9 0;
#X connect 5 0 2 1;
#X connect 6 0 7 0;
#X connect 7 0 10 0;
#X connect 7 1 12 0;
#X connect 8 0 1 0;
#X connect 10 0 13 0;
#X connect 11 0 0 0;
#X connect 12 0 11 0;
#X connect 13 0 4 0;
#X connect 14 0 5 1;
#X connect 14 0 3 1;
#X restore 1204 478 pd playSoundSernice;
#X obj 1067 479 s speedSernice;
#N canvas 218 -16 1920 997 granularSampleSernice 0;
#N canvas 0 0 450 300 (subpatch) 0;
#X array arraySernice 399360 float 2;
#X coords 0 1 399360 -1 200 140 1 0 0;
#X restore 292 28 graph;
#X obj 290 220 soundfiler;
#X floatatom 290 246 5 0 0 0 - - - 0;
#X obj 290 272 expr 44100 / $f1;
#X obj 290 329 *~;
#X obj 290 303 phasor~;
#X obj 47 370 phasor~;
#X floatatom 47 345 5 0 0 0 - - - 0;
#X obj 46 512 *~ 256;
#X obj 290 507 samphold~;
#X obj 47 593 +~;
#X obj 48 823 dac~;
#X obj 233 628 tabread~ hanning;
#X obj 48 695 *~;
#X obj 385 508 *~ 256;
#X obj 627 515 samphold~;
#X obj 386 589 +~;
#X obj 584 626 tabread~ hanning;
#X obj 387 691 *~;
#X obj 385 457 wrap~;
#X obj 385 429 +~ 0.5;
#X obj 48 791 *~ 0.6;
#X text 647 195 load sound file;
#X text 343 247 size of sound file;
#X text 356 303 runs at original speed;
#X text 104 502 window \, here 256;
#X text 103 519 samples in size;
#X text 448 436 phase shift;
#X text 445 500 window \, here 256;
#X text 444 517 samples in size;
#X obj 720 75 inlet;
#X floatatom 162 326 5 0 0 0 - - - 0;
#X obj 720 129 t b;
#X msg 289 190 read -resize sernice.wav arraySernice;
#X obj 165 252 r windowSernice;
#X obj 49 283 r speedSernice;
#X obj 388 624 tabread4~ arraySernice;
#X obj 48 628 tabread4~ arraySernice;
#X obj 166 774 r sampleSerniceVolume;
#X connect 1 0 2 0;
#X connect 2 0 3 0;
#X connect 2 0 4 1;
#X connect 3 0 5 0;
#X connect 4 0 9 0;
#X connect 4 0 15 0;
#X connect 5 0 4 0;
#X connect 6 0 8 0;
#X connect 6 0 9 1;
#X connect 6 0 20 0;
#X connect 7 0 6 0;
#X connect 8 0 10 0;
#X connect 8 0 12 0;
#X connect 9 0 10 1;
#X connect 10 0 37 0;
#X connect 12 0 13 1;
#X connect 13 0 21 0;
#X connect 14 0 16 0;
#X connect 14 0 17 0;
#X connect 15 0 16 1;
#X connect 16 0 36 0;
#X connect 17 0 18 1;
#X connect 18 0 21 0;
#X connect 19 0 14 0;
#X connect 19 0 15 1;
#X connect 20 0 19 0;
#X connect 21 0 11 0;
#X connect 21 0 11 1;
#X connect 30 0 32 0;
#X connect 31 0 8 1;
#X connect 31 0 14 1;
#X connect 32 0 33 0;
#X connect 33 0 1 0;
#X connect 34 0 31 0;
#X connect 35 0 7 0;
#X connect 36 0 18 0;
#X connect 37 0 13 0;
#X connect 38 0 21 1;
#X restore 1015 514 pd granularSampleSernice;
#X connect 0 0 29 0;
#X connect 1 0 0 0;
#X connect 2 0 1 0;
#X connect 3 0 2 0;
#X connect 5 0 4 0;
#X connect 6 0 4 1;
#X connect 7 0 8 0;
#X connect 8 0 9 0;
#X connect 10 0 36 0;
#X connect 11 0 30 0;
#X connect 12 0 11 0;
#X connect 13 0 14 0;
#X connect 14 0 12 0;
#X connect 15 0 34 0;
#X connect 16 0 15 0;
#X connect 17 0 16 0;
#X connect 18 0 17 0;
#X connect 19 0 33 0;
#X connect 20 0 33 1;
#X connect 21 0 35 0;
#X connect 22 0 32 0;
#X connect 23 0 22 0;
#X connect 24 0 25 0;
#X connect 25 0 23 0;
#X connect 26 0 27 0;
#X connect 27 0 37 0;
#X connect 38 0 55 0;
#X connect 39 0 38 0;
#X connect 40 0 39 0;
#X connect 41 0 40 0;
#X connect 42 0 54 0;
#X connect 43 0 54 1;
#X connect 44 0 56 0;
#X connect 45 0 53 0;
#X connect 46 0 45 0;
#X connect 47 0 48 0;
#X connect 48 0 46 0;
#X connect 49 0 50 0;
#X connect 50 0 52 0;
#X connect 57 0 89 0;
#X connect 58 0 57 0;
#X connect 59 0 58 0;
#X connect 60 0 59 0;
#X connect 61 0 87 0;
#X connect 62 0 87 1;
#X connect 63 0 88 0;
#X connect 64 0 86 0;
#X connect 65 0 64 0;
#X connect 66 0 67 0;
#X connect 67 0 65 0;
#X connect 68 0 69 0;
#X connect 69 0 85 0;
#X connect 70 0 93 0;
#X connect 71 0 70 0;
#X connect 72 0 71 0;
#X connect 73 0 72 0;
#X connect 74 0 92 0;
#X connect 75 0 92 1;
#X connect 76 0 94 0;
#X connect 77 0 91 0;
#X connect 78 0 77 0;
#X connect 79 0 80 0;
#X connect 80 0 78 0;
#X connect 81 0 82 0;
#X connect 82 0 90 0;
